<svg width="100%" height="100%" viewBox="0 0 10 16" fill="none" xmlns="http://www.w3.org/2000/svg">
<path d="M0.601562 5.1C0.601562 6.05 0.901563 7 1.50156 7.75L2.65156 9.25C2.85156 9.5 2.90156 9.75 2.90156 10.05V11.35H7.15156V10.05C7.15156 9.75 7.25156 9.5 7.40156 9.25L8.55156 7.75C9.15156 7 9.45156 6.05 9.45156 5.1C9.45156 2.7 7.50156 0.75 5.10156 0.75H5.00156C2.55156 0.75 0.601562 2.7 0.601562 5.1Z" stroke="currentColor" stroke-miterlimit="10" stroke-linecap="round" stroke-linejoin="round"/>
<path d="M7.15234 11.3496H2.90234V13.2996H7.15234V11.3496Z" stroke="currentColor" stroke-miterlimit="10" stroke-linecap="round" stroke-linejoin="round"/>
<path d="M7.10234 13.2998H2.90234L4.10234 15.2498H5.90234L7.10234 13.2998Z" stroke="currentColor" stroke-miterlimit="10" stroke-linecap="round" stroke-linejoin="round"/>
<path d="M5 2.7002C6.45 2.7002 7.65 3.9002 7.65 5.3502" stroke="currentColor" stroke-miterlimit="10" stroke-linecap="round" stroke-linejoin="round"/>
</svg>
