<svg width="100%" height="100%" viewBox="0 0 16 16" fill="none" xmlns="http://www.w3.org/2000/svg">
<path d="M3.60156 5.1C3.60156 6.05 3.90156 7 4.50156 7.75L5.65156 9.25C5.85156 9.5 5.90156 9.75 5.90156 10.05V11.35H10.1516V10.05C10.1516 9.75 10.2516 9.5 10.4016 9.25L11.5516 7.75C12.1516 7 12.4516 6.05 12.4516 5.1C12.4516 2.7 10.5016 0.75 8.10156 0.75H8.00156C5.55156 0.75 3.60156 2.7 3.60156 5.1Z" stroke="currentColor" stroke-miterlimit="10" stroke-linecap="round" stroke-linejoin="round"/>
<path d="M10.1523 11.3496H5.90234V13.2996H10.1523V11.3496Z" stroke="currentColor" stroke-miterlimit="10" stroke-linecap="round" stroke-linejoin="round"/>
<path d="M10.1023 13.3008H5.90234L7.10234 15.2508H8.90234L10.1023 13.3008Z" stroke="currentColor" stroke-miterlimit="10" stroke-linecap="round" stroke-linejoin="round"/>
<path d="M8 2.69922C9.45 2.69922 10.65 3.89922 10.65 5.34922" stroke="currentColor" stroke-miterlimit="10" stroke-linecap="round" stroke-linejoin="round"/>
</svg>
