<svg width="100%" height="100%" viewBox="0 0 26 21" fill="none" xmlns="http://www.w3.org/2000/svg">
<path d="M25 15.0554V5.96964C25 4.5125 24.0571 3.3125 22.6 2.96964C16.2571 1.42679 9.65714 1.42679 3.31429 2.96964C1.94286 3.3125 1 4.59821 1 5.96964V14.9696C1 16.4268 1.94286 17.6268 3.4 17.9696C9.74286 19.5125 16.3429 19.5125 22.6857 17.9696C24.0571 17.7125 25 16.4268 25 15.0554Z" stroke="#C4D3E9" stroke-width="2" stroke-miterlimit="10" stroke-linecap="round" stroke-linejoin="round"/>
<path d="M9.91406 14.7141V6.22839C9.91406 5.62839 10.5998 5.28553 11.1141 5.62839L17.2855 9.82839C17.7141 10.0855 17.7141 10.7712 17.2855 11.1141L11.1141 15.3141C10.5998 15.7427 9.91406 15.3141 9.91406 14.7141Z" stroke="#C4D3E9" stroke-width="2" stroke-miterlimit="10" stroke-linecap="round" stroke-linejoin="round"/>
</svg>
