<svg width="100%" height="100%" viewBox="0 0 24 24" fill="none" xmlns="http://www.w3.org/2000/svg">
<path d="M19.861 3.50625L11.9156 12.7922L8.55938 9.43125C7.19531 8.07656 5.07656 10.2 6.44062 11.5547L10.9406 16.0594C11.2125 16.3313 11.5875 16.5 12 16.5C12.4547 16.5 12.8625 16.2937 13.1391 15.975L22.1391 5.45625C23.386 4.00313 21.1078 2.06719 19.861 3.50625Z" fill="white"/>
<path d="M12 24C5.38125 24 0 18.6187 0 12C0 5.38125 5.38125 0 12 0C13.2797 0 14.5406 0.201563 15.7453 0.595312C17.6531 1.21875 16.6828 4.05937 14.8125 3.44531C13.9078 3.15 12.9609 3 12 3C7.03594 3 3 7.03594 3 12C3 16.9641 7.03594 21 12 21C16.9641 21 21 16.9641 21 12C21 11.6578 20.9812 11.325 20.9437 10.9969C20.8266 8.9625 23.6812 8.75625 23.925 10.6688C23.9719 11.1047 24 11.55 24 12.0047C24 18.6188 18.6187 24 12 24Z" fill="white"/>
</svg>
