<svg width="100%" height="100%" viewBox="0 0 26 23" fill="none" xmlns="http://www.w3.org/2000/svg">
<path d="M23.8836 9.3235H16.1468L16.8917 6.61343C17.0085 6.19127 17.0676 5.75526 17.0675 5.31724V3.55026C17.0674 2.8627 16.7982 2.20249 16.3173 1.71101L16.0194 1.40708C15.7789 1.16141 15.4919 0.966215 15.175 0.832925C14.8582 0.699636 14.5179 0.630938 14.1742 0.630859C14.0793 0.630859 13.9854 0.649555 13.8978 0.685878C13.8101 0.7222 13.7305 0.775437 13.6635 0.842545C13.5964 0.909653 13.5433 0.989317 13.5071 1.07698C13.4708 1.16464 13.4522 1.25859 13.4523 1.35345V2.41721C13.4523 2.94084 13.3667 3.46094 13.199 3.95699L12.9465 4.70193C12.649 5.58284 12.1032 6.35894 11.3747 6.93673L8.28993 9.37788C8.16056 9.4804 8.05604 9.61084 7.98419 9.75945C7.91234 9.90805 7.87501 10.071 7.875 10.236V21.2678C7.875 21.5579 7.99019 21.8361 8.19525 22.0413C8.40031 22.2465 8.67846 22.3619 8.96856 22.3621H20.556C21.4499 22.3621 22.2306 21.673 22.2575 20.7791C22.2641 20.5605 22.2268 20.3427 22.1478 20.1388C22.0687 19.9348 21.9495 19.7488 21.7972 19.5918C21.6449 19.4348 21.4627 19.31 21.2612 19.2247C21.0598 19.1395 20.8433 19.0956 20.6246 19.0956H21.6421C22.5361 19.0956 23.3167 18.4065 23.3436 17.5126C23.3566 17.0856 23.202 16.6705 22.9128 16.3561C22.6237 16.0418 22.2229 15.8531 21.7963 15.8305L22.7975 15.8566C23.2247 15.8475 23.6312 15.6714 23.9301 15.3661C24.2289 15.0608 24.3963 14.6505 24.3963 14.2233C24.3963 13.7961 24.2289 13.3859 23.9301 13.0805C23.6312 12.7752 23.2247 12.5992 22.7975 12.59H23.8151C24.709 12.59 25.489 11.901 25.5158 11.0071C25.5226 10.7885 25.4854 10.5707 25.4064 10.3668C25.3274 10.1628 25.2083 9.97682 25.0561 9.8198C24.9038 9.66278 24.7216 9.53793 24.5202 9.45268C24.3188 9.36742 24.1023 9.32349 23.8836 9.3235Z" fill="white"/>
<path d="M5.74473 9.70898H1.18201C1.11034 9.70898 1.03937 9.72311 0.973165 9.75056C0.906958 9.77801 0.846812 9.81825 0.796168 9.86896C0.745523 9.91967 0.705373 9.97987 0.678013 10.0461C0.650653 10.1124 0.636621 10.1834 0.636719 10.255V21.8149C0.636621 21.8866 0.650653 21.9576 0.678013 22.0238C0.705373 22.0901 0.745523 22.1503 0.796168 22.201C0.846812 22.2517 0.906958 22.2919 0.973165 22.3194C1.03937 22.3468 1.11034 22.361 1.18201 22.361H5.74473C5.88929 22.3606 6.0278 22.3029 6.12988 22.2005C6.23196 22.0981 6.28928 21.9595 6.28928 21.8149V10.255C6.28928 10.1105 6.23196 9.9718 6.12988 9.86944C6.0278 9.76708 5.88929 9.70938 5.74473 9.70898ZM4.77632 21.6719C4.61425 21.6719 4.45582 21.6238 4.32107 21.5338C4.18632 21.4437 4.08129 21.3158 4.01927 21.166C3.95725 21.0163 3.94102 20.8516 3.97264 20.6926C4.00425 20.5336 4.0823 20.3876 4.1969 20.273C4.3115 20.1584 4.4575 20.0804 4.61646 20.0488C4.77541 20.0172 4.94017 20.0334 5.0899 20.0954C5.23963 20.1574 5.36761 20.2625 5.45765 20.3972C5.54769 20.532 5.59575 20.6904 5.59575 20.8525C5.59575 21.0697 5.50952 21.278 5.35601 21.4316C5.20249 21.5853 4.99426 21.6717 4.77706 21.6719H4.77632Z" fill="white"/>
</svg>
