<svg width="100%" height="100%" viewBox="0 0 22 20" fill="none" xmlns="http://www.w3.org/2000/svg">
<path d="M11 2.35039C11.075 2.50039 11.15 2.65039 11.225 2.80039L11.6 3.62539L11.975 4.37539C12.35 5.12539 12.725 5.80039 13.025 6.55039C13.175 6.85039 13.625 7.45039 14.45 7.60039C15.575 7.75039 16.775 7.90039 17.9 8.12539L19.1 8.27539L18.65 8.72539C17.675 9.62539 16.7 10.6004 15.725 11.5004C15.275 11.9504 15.05 12.5504 15.2 13.2254C15.5 14.7254 15.725 16.3004 16.025 17.8004L15.125 17.3504C14 16.7504 12.95 16.2254 11.825 15.6254C11.525 15.4754 11.225 15.4004 10.925 15.4004C10.625 15.4004 10.325 15.4754 10.025 15.6254C8.675 16.3754 7.25 17.0504 5.825 17.8004L5.9 17.5754C6.125 16.1504 6.425 14.6504 6.65 13.2254C6.725 12.5504 6.575 11.9504 6.05 11.5004C5.3 10.7504 4.4 9.85039 3.5 9.02539L2.825 8.35039C3.35 8.27539 3.95 8.20039 4.475 8.12539L5.15 8.05039L5.825 7.97539C6.425 7.90039 6.95 7.82539 7.55 7.75039C8.225 7.67539 8.675 7.15039 8.9 6.77539C9.575 5.20039 10.325 3.77539 11 2.35039ZM11 0.0253906C10.7 0.0253906 10.4 0.175391 10.25 0.475391C10.25 0.550391 10.175 0.625391 10.175 0.625391C9.275 2.42539 8.45 4.15039 7.55 5.95039C7.475 6.02539 7.4 6.10039 7.325 6.17539C6.5 6.25039 5.75 6.40039 4.925 6.47539C3.65 6.62539 2.45 6.85039 1.175 7.00039C0.725 7.07539 0.5 7.45039 0.5 7.90039C0.5 8.12539 0.65 8.35039 0.8 8.50039C2.225 9.92539 3.65 11.2754 5.075 12.7004C5.225 12.7754 5.225 12.9254 5.225 13.0754C4.925 14.6504 4.7 16.2254 4.4 17.8754C4.325 18.2504 4.25 18.7004 4.175 19.1504C4.175 19.2254 4.175 19.3004 4.175 19.3754C4.25 19.7504 4.55 19.9754 4.925 19.9754C5.075 19.9754 5.225 19.9754 5.375 19.8254C7.175 18.9254 8.975 17.9504 10.775 16.9754C10.85 16.9004 10.925 16.9004 11 16.9004C11.075 16.9004 11.15 16.9004 11.225 16.9754C13.025 17.9504 14.825 18.8504 16.625 19.8254C16.775 19.9004 16.925 19.9754 17.075 19.9754C17.225 19.9754 17.375 19.9004 17.525 19.8254C17.825 19.6004 17.9 19.3754 17.825 19.0004C17.45 16.9754 17.15 15.0254 16.775 13.0004C16.775 12.8504 16.775 12.7004 16.925 12.6254C18.35 11.2004 19.85 9.85039 21.275 8.42539C21.5 8.20039 21.65 7.90039 21.5 7.60039C21.425 7.30039 21.125 7.07539 20.825 7.07539C18.8 6.77539 16.775 6.47539 14.825 6.17539C14.675 6.17539 14.6 6.10039 14.525 5.95039C14.075 4.97539 13.55 4.00039 13.1 3.02539C12.65 2.20039 12.275 1.30039 11.825 0.475391C11.6 0.175391 11.3 0.0253906 11 0.0253906Z" fill="currentColor"/>
</svg>
