<svg width="100%" height="100%" viewBox="0 0 16 16" fill="none" xmlns="http://www.w3.org/2000/svg">
<path d="M9.89844 2.5498H5.89844" stroke="white" stroke-miterlimit="10" stroke-linecap="round" stroke-linejoin="round"/>
<path d="M3.95 2.5498H2.65C1.9 2.5498 1.25 3.1998 1.25 3.9498V13.5998C1.25 14.3498 1.9 14.9998 2.65 14.9998H13.35C14.1 14.9998 14.75 14.3498 14.75 13.5998V3.9498C14.75 3.1998 14.1 2.5498 13.35 2.5498H12.05" stroke="white" stroke-miterlimit="10" stroke-linecap="round" stroke-linejoin="round"/>
<path d="M4.95156 1C4.45156 1 4.10156 1.4 4.10156 1.85V3.8C4.10156 4.3 4.50156 4.65 4.95156 4.65C5.45156 4.65 5.80156 4.25 5.80156 3.8V1.85C5.80156 1.4 5.45156 1 4.95156 1Z" stroke="white" stroke-miterlimit="10" stroke-linecap="round" stroke-linejoin="round"/>
<path d="M11.0531 1C10.5531 1 10.2031 1.4 10.2031 1.85V3.8C10.2031 4.3 10.6031 4.65 11.0531 4.65C11.5531 4.65 11.9031 4.25 11.9031 3.8V1.85C11.9031 1.4 11.5531 1 11.0531 1Z" stroke="white" stroke-miterlimit="10" stroke-linecap="round" stroke-linejoin="round"/>
<path d="M1.44922 6.84961H14.2492" stroke="white" stroke-miterlimit="10" stroke-linecap="round" stroke-linejoin="round"/>
</svg>
