<svg width="14" height="14" viewBox="0 0 14 14" fill="none" xmlns="http://www.w3.org/2000/svg">
<path d="M13.2603 12.512L13.3868 12.3854C13.7099 12.0623 13.7099 11.5383 13.3868 11.2151L2.85393 0.682298C2.53076 0.359125 2.00679 0.359116 1.68362 0.68229L1.5571 0.808813C1.23392 1.13199 1.23393 1.65595 1.55711 1.97912L12.0899 12.512C12.4131 12.8351 12.9371 12.8351 13.2603 12.512Z" fill="currentColor"/>
<path d="M1.5571 12.3847L1.68362 12.5113C2.0068 12.8344 2.53078 12.8345 2.85396 12.5113L13.3868 1.97844C13.71 1.65527 13.71 1.13128 13.3868 0.808108L13.2603 0.681585C12.9371 0.358411 12.4131 0.35842 12.0899 0.681593L1.55711 11.2144C1.23394 11.5376 1.23393 12.0616 1.5571 12.3847Z" fill="currentColor"/>
</svg>
