<svg width="309" height="43" viewBox="0 0 309 43" fill="none" xmlns="http://www.w3.org/2000/svg">
<path d="M11.2652 33.4008C11.2652 35.4591 11.2652 37.1958 11.2652 38.9376C11.2652 40.3372 10.4758 41.2712 9.30821 41.3175C8.14059 41.3638 7.22681 40.3578 7.22681 38.9222C7.22681 27.4404 7.22681 15.9561 7.22681 4.46917C7.22681 3.01294 8.08475 2.02754 9.28029 2.05069C10.4758 2.07385 11.2678 3.0258 11.2703 4.5232C11.2703 8.33787 11.2703 12.1517 11.2703 15.9647V17.3437C12.6334 16.029 13.7883 14.7348 15.1184 13.6645C18.7178 10.691 23.2274 9.08238 27.8708 9.11573C29.1044 9.11573 29.9547 9.91589 30.0461 10.9991C30.1375 12.0822 29.376 12.9416 28.1551 13.1577C27.7809 13.2245 27.4027 13.2658 27.023 13.2812C20.3067 13.5513 14.1792 18.2802 12.2095 24.7895C12.0383 25.4371 12.063 26.122 12.2806 26.7552C15.5804 36.1641 27.1448 39.7841 35.1735 33.9592C35.4476 33.7585 35.7116 33.5449 35.9908 33.352C37.0798 32.5981 38.2118 32.7036 38.9149 33.6221C39.6561 34.5869 39.5267 35.6804 38.4784 36.55C36.0131 38.658 33.0309 40.0502 29.8481 40.5791C22.4718 41.76 16.4078 39.303 11.2652 33.4008Z" fill="white"/>
<path d="M234.938 20.4747V4.3738C236.968 4.3738 238.956 4.35837 240.93 4.3738C242.532 4.39181 244.134 4.44327 245.735 4.49473C249.375 4.60793 251.881 8.37458 249.345 11.8351C249.535 12.0357 249.741 12.239 249.926 12.4577C251.178 13.9551 251.548 15.6609 250.837 17.485C250.542 18.3007 250.01 19.0063 249.311 19.5084C248.611 20.0106 247.778 20.2856 246.921 20.2972C243.507 20.4541 240.088 20.4284 236.669 20.4773C236.128 20.4824 235.587 20.4747 234.938 20.4747ZM239.991 14.323C240.369 15.1129 240.55 15.949 240.821 15.9799C241.953 16.0871 243.092 16.0707 244.22 15.931C244.502 15.9002 244.728 15.3907 244.982 15.1026C244.695 14.8453 244.421 14.3796 244.116 14.359C242.915 14.2715 241.697 14.323 239.991 14.323ZM240.514 8.90716L240.138 9.24163C240.392 9.70989 240.573 10.5281 240.9 10.5795C241.809 10.7119 242.734 10.6885 243.636 10.51C243.948 10.4586 244.182 9.91572 244.451 9.59926C244.141 9.3677 243.847 8.96634 243.52 8.93804C242.519 8.85056 241.514 8.90716 240.514 8.90716Z" fill="white"/>
<path d="M303.627 20.4567V12.8334L303.342 12.7485C302.154 14.6884 300.867 16.5743 299.817 18.5863C299.055 20.0605 298.103 20.6008 296.436 20.5133C293.308 20.3538 293.301 20.4696 293.301 17.3436C293.301 13.4483 293.334 9.55043 293.281 5.65514C293.265 4.626 293.59 4.29667 294.58 4.35328C295.877 4.42532 297.179 4.37129 298.578 4.37129V11.9174L298.832 12.0255C299.339 11.2331 299.847 10.4432 300.355 9.64305C301.276 8.15852 302.132 6.63539 303.147 5.20232C303.49 4.76596 303.987 4.48182 304.533 4.40988C305.705 4.2941 306.896 4.39701 308.086 4.36357C308.805 4.34556 309.036 4.64658 309.033 5.35669C309.013 10.065 309.033 14.7759 308.993 19.4868C308.993 19.8109 308.581 20.4001 308.335 20.413C306.797 20.5005 305.284 20.4567 303.627 20.4567Z" fill="white"/>
<path d="M217.121 20.4723V4.37398C218.71 4.37398 220.223 4.33024 221.728 4.42029C221.957 4.42029 222.315 5.05578 222.327 5.40569C222.391 7.11921 222.353 8.83272 222.36 10.5514C222.343 11.0014 222.451 11.4472 222.673 11.8378C223.957 9.75123 225.29 7.69038 226.505 5.56521C227.044 4.62355 227.676 4.26077 228.737 4.34311C229.988 4.44087 231.25 4.36626 232.575 4.36626V20.3797H227.32V12.4862C226.896 13.0728 226.678 13.3378 226.5 13.6285C225.269 15.625 224.069 17.6422 222.802 19.6155C222.563 19.9886 222.076 20.408 221.68 20.4337C220.213 20.5315 218.736 20.4723 217.121 20.4723Z" fill="white"/>
<path d="M134.804 20.4799V11.0633C134.804 9.30863 134.804 9.30863 133.116 9.30863H130.344V20.3925H124.826C124.791 19.9937 124.727 19.6206 124.727 19.2604C124.727 14.7142 124.745 10.1705 124.707 5.62431C124.707 4.71095 124.892 4.33789 125.887 4.33789C130.329 4.3842 134.771 4.3842 139.213 4.33789C140.175 4.33789 140.439 4.66464 140.432 5.60373C140.394 10.1474 140.394 14.6927 140.432 19.2398C140.432 20.1841 140.163 20.5417 139.206 20.4954C137.782 20.4285 136.355 20.4799 134.804 20.4799Z" fill="white"/>
<path d="M258.369 10.1369H262.783V4.47666H268.339V20.3717H262.803V15.1437H258.379V20.382H252.884V4.37375C254.526 4.37375 256.12 4.33258 257.706 4.41749C257.942 4.41749 258.321 5.02982 258.336 5.37201C258.399 6.94659 258.369 8.5289 258.369 10.1369Z" fill="white"/>
<path d="M96.4555 20.4568C94.1025 20.3822 92.0236 19.6592 90.2671 18.0949C86.6297 14.8557 86.749 9.54535 90.5209 6.44764C94.1076 3.49658 99.6994 3.7127 102.936 7.01109C104.921 9.03592 105.746 11.5033 104.946 14.3128C104.07 17.3256 101.936 19.1112 99.0496 20.0014C98.212 20.2587 97.3134 20.3101 96.4555 20.4568ZM96.4428 9.74346C94.7726 9.74346 93.44 10.9141 93.4552 12.3935C93.4679 13.8163 94.7802 14.9818 96.3768 14.9921C98.0368 14.9921 99.3796 13.806 99.3618 12.3266C99.3339 10.9038 98.0318 9.75118 96.4301 9.74346H96.4428Z" fill="white"/>
<path d="M151.153 20.5056C148.361 20.3461 145.988 19.4225 144.168 17.287C141.244 13.8548 141.772 9.09762 145.343 6.33181C148.871 3.59687 154.123 3.75896 157.25 6.68686C161.733 10.8909 160.233 17.7192 154.329 19.7929C153.313 20.1531 152.219 20.2741 151.153 20.5056ZM151.097 9.74855C149.44 9.74855 148.095 10.9243 148.105 12.3806C148.105 13.7751 149.432 14.9534 151.009 14.9972C152.585 15.0409 154.054 13.8265 154.077 12.4037C154.1 10.9809 152.752 9.75627 151.097 9.74855Z" fill="white"/>
<path d="M85.7232 20.4695C83.5681 20.4695 81.7177 20.5106 79.8724 20.4309C79.5221 20.4309 79.088 19.9884 78.8698 19.6359C77.8798 18.0484 76.9508 16.4198 75.6816 14.8247C75.6816 16.1908 75.603 17.5622 75.7045 18.9206C75.7984 20.1685 75.3821 20.5981 74.1511 20.4978C72.8591 20.3949 71.5518 20.4746 70.1685 20.4746V4.37375C71.8184 4.37375 73.453 4.33516 75.0826 4.42263C75.2984 4.42263 75.6385 5.07871 75.6537 5.45177C75.7172 6.9466 75.6816 8.44399 75.9279 10.0623L77.0599 8.23302C77.8468 6.96975 78.3672 5.22279 79.4967 4.57958C80.6263 3.93636 82.3726 4.38404 83.8499 4.36088C84.3804 4.36088 84.9109 4.36088 85.7206 4.36088C84.5682 6.46547 83.69 8.41569 82.4995 10.1421C81.3598 11.7913 81.4436 13.1086 82.5274 14.7243C83.6824 16.4455 84.5657 18.3546 85.7232 20.4695Z" fill="white"/>
<path d="M161.603 4.52551C165.352 4.52551 169.028 4.29652 172.663 4.59755C175.533 4.83682 177.196 7.27588 177.122 10.2064C177.051 13.0185 175.379 14.8915 172.373 15.2208C170.711 15.4035 169.01 15.2543 167.188 15.2543V20.3614H161.603V4.52551ZM167.188 10.9834C168.307 10.9834 169.292 11.0863 170.233 10.9319C170.607 10.8701 171.066 10.2681 171.142 9.84873C171.188 9.60688 170.579 9.00998 170.213 8.96367C169.233 8.8376 168.226 8.91993 167.185 8.91993L167.188 10.9834Z" fill="white"/>
<path d="M112.419 15.3316C112.419 16.8754 112.394 18.1901 112.419 19.51C112.439 20.2329 112.165 20.5056 111.454 20.4851C110.231 20.4516 109.005 20.449 107.781 20.4851C107.066 20.5056 106.822 20.2278 106.824 19.5048C106.845 14.7931 106.845 10.0822 106.824 5.37216C106.824 4.572 107.129 4.34302 107.873 4.34302C110.871 4.37132 113.871 4.31729 116.871 4.36617C119.331 4.40734 121.346 5.84299 122.087 7.95272C122.902 10.2683 122.476 12.7279 120.63 13.9783C119.511 14.7502 118.018 15.0564 116.645 15.2648C115.34 15.4989 113.97 15.3316 112.419 15.3316ZM112.51 10.9835C113.579 10.9835 114.589 11.0813 115.556 10.9321C115.934 10.8729 116.412 10.294 116.495 9.87721C116.546 9.61993 115.94 9.01531 115.577 8.969C114.597 8.83778 113.587 8.92269 112.503 8.92269L112.51 10.9835Z" fill="white"/>
<path d="M270.245 20.2714V4.47925H275.266V10.3968C276.655 10.3968 277.909 10.3711 279.16 10.3968C280.044 10.388 280.927 10.4638 281.797 10.6232C284.391 11.2047 285.719 12.9877 285.605 15.5785C285.49 17.9224 283.8 20.0733 281.447 20.2096C277.738 20.4206 274.027 20.2714 270.245 20.2714ZM275.406 14.3307V16.3632C276.619 16.3632 277.756 16.4507 278.865 16.3143C279.239 16.268 279.708 15.6891 279.807 15.2852C279.86 15.0562 279.261 14.4207 278.914 14.3873C277.756 14.2561 276.591 14.3307 275.406 14.3307Z" fill="white"/>
<path d="M197.63 20.4695C195.421 20.4695 193.568 20.5132 191.731 20.4309C191.391 20.4155 190.969 19.9549 190.766 19.5947C189.923 18.1668 189.152 16.6977 188.248 15.0536C187.375 16.6385 186.545 18.0613 185.801 19.533C185.446 20.2405 185.004 20.5209 184.22 20.4952C182.542 20.4438 180.862 20.4798 178.869 20.4798L188.243 3.44238L197.63 20.4695Z" fill="white"/>
<path d="M199.389 4.44336H214.807V8.88409H209.872V20.4619C208.123 20.4619 206.524 20.5082 204.935 20.4104C204.696 20.395 204.316 19.7055 204.311 19.3221C204.257 16.281 204.247 13.2374 204.311 10.1937C204.326 9.20827 204.057 8.80434 203.042 8.87638C201.871 8.95871 200.691 8.89438 199.412 8.89438L199.389 4.44336Z" fill="white"/>
<path d="M125.94 42.5883V26.7292C127.156 26.7292 128.321 26.7292 129.494 26.7292C131.271 26.7473 133.047 26.7035 134.824 26.8322C138.814 27.1203 140.731 30.8072 138.213 33.9204C138.832 35.0164 139.644 35.9632 139.926 37.0515C140.634 39.7787 138.962 42.2872 136.038 42.524C132.71 42.7941 129.364 42.5883 125.94 42.5883ZM127.852 40.7873C130.39 40.7873 132.867 40.8053 135.337 40.7693C135.757 40.7254 136.163 40.5902 136.527 40.3731C137.723 39.7787 138.066 38.6981 137.891 37.4735C137.715 36.2488 137.028 35.2557 135.822 35.1913C133.192 35.055 130.55 35.1502 127.852 35.1502V40.7873ZM127.852 33.326C130.215 33.326 132.446 33.326 134.68 33.326C136.294 33.326 137.071 32.7163 137.182 31.4093C137.309 29.9505 136.624 28.857 135.073 28.7438C132.697 28.5714 130.301 28.7 127.852 28.7V33.326Z" fill="white"/>
<path d="M89.2644 42.578V26.7292H92.719C95.8073 26.7292 98.8947 26.7292 101.981 26.7292C103.476 26.7292 103.504 26.7678 103.172 28.5483H99.9456C97.3667 28.5483 94.7852 28.5688 92.2063 28.5483C91.46 28.5483 91.1275 28.7592 91.1554 29.5774C91.2011 30.8638 91.1681 32.1374 91.1681 33.5936H101.804V35.2454H91.2798V40.8362C91.7215 40.8593 92.1682 40.9005 92.6175 40.9005C95.7041 40.9005 98.7915 40.9005 101.88 40.9005C103.42 40.9005 103.42 40.9005 103.261 42.596L89.2644 42.578Z" fill="white"/>
<path d="M143.32 42.5728V26.9195C145.097 26.513 145.199 26.5774 145.199 28.3012C145.199 32.0678 145.199 35.837 145.452 39.7684C145.798 39.3927 146.156 39.0274 146.488 38.6389C149.582 35.0034 152.707 31.3937 155.74 27.7068C156.517 26.7652 157.316 26.5799 158.451 26.8424V42.6036H156.723V29.6828C156.468 29.8411 156.227 30.0219 156.004 30.2231C152.829 33.9563 149.618 37.6586 146.519 41.4587C145.653 42.5264 144.76 42.9458 143.32 42.5728Z" fill="white"/>
<path d="M109.49 37.5637V42.6296H107.571V26.8838C107.853 26.8153 108.14 26.7688 108.429 26.7448C111.046 26.7448 113.663 26.7114 116.28 26.7448C118.747 26.7783 120.717 28.2422 121.356 30.4369C122.067 32.8425 121.445 35.3562 119.595 36.5191C118.625 37.1001 117.533 37.4421 116.409 37.5174C114.196 37.6614 111.957 37.5637 109.49 37.5637ZM109.568 35.6649C112.092 35.6649 114.495 35.7884 116.881 35.6212C118.595 35.5002 119.625 34.0775 119.656 32.3408C119.691 30.3931 118.848 28.9961 117.049 28.834C114.597 28.6179 112.112 28.78 109.568 28.78V35.6649Z" fill="white"/>
<path d="M291.74 20.2944H286.663V4.38649C288.199 4.38649 289.666 4.36076 291.13 4.41479C291.272 4.45996 291.399 4.54083 291.501 4.64977C291.602 4.75871 291.675 4.89213 291.712 5.03742C291.747 10.0776 291.74 15.1178 291.74 20.2944Z" fill="white"/>
<path d="M86.4976 38.3996C84.7792 41.8858 80.5174 43.7202 76.6186 42.7091C72.5294 41.6439 69.9555 38.3198 70.1383 34.3422C70.3109 30.5215 73.3568 27.272 77.2963 26.6623C81.2357 26.0525 85.2564 28.0439 86.419 31.1313C85.5128 31.7925 84.8731 31.8002 84.038 30.784C82.1292 28.4684 79.5325 28.013 76.7709 28.7823C74.3544 29.4564 72.6918 31.049 72.2019 33.6167C71.4404 37.5917 74.9382 41.2915 79.0934 41.0136C80.9845 40.885 82.6343 40.2417 83.9314 38.7984C84.929 37.6843 84.934 37.6869 86.4976 38.3996Z" fill="white"/>
<path d="M176.719 31.1314C175.739 31.8184 175.089 31.8004 174.254 30.797C171.477 27.4523 165.85 27.7713 163.408 31.3115C162.027 33.3158 161.87 35.4744 163.083 37.6073C164.454 40.0181 166.637 41.0729 169.33 41.0137C171.175 40.9752 172.884 40.3834 174.039 38.8757C174.869 37.7797 175.63 37.6742 176.777 38.4692C175.508 40.8002 173.546 42.1767 171.008 42.7736C165.995 43.9545 161.108 40.7153 160.403 35.6648C160.009 32.8038 161.139 30.4676 163.264 28.6178C167.401 25.0003 174.407 26.2816 176.719 31.1314Z" fill="white"/>
<path d="M54.5558 42.9408H53.2866V0.450195H54.5558V42.9408Z" fill="white"/>
<path d="M21.0193 0.370361C33.4798 0.383226 43.3284 11.3436 41.907 23.8502C41.6125 26.423 40.4982 28.9161 39.7037 31.4246C39.6098 31.7231 39.1656 31.9083 38.8839 32.1476C38.8839 31.7565 38.7493 31.3011 38.9016 30.9898C43.3919 21.7276 40.8866 11.0271 32.5559 5.06838C26.7457 0.905513 20.3517 0.234 13.6405 2.7168C13.1709 2.88918 12.6251 2.82228 12.0972 2.86602C12.516 2.50582 12.8815 1.94752 13.3663 1.82145C15.8691 1.15508 16.436 0.999756 19.436 0.499756L21.0193 0.370361Z" fill="white"/>
<path d="M6.32799 36.3209C-1.99256 29.2765 -2.22101 14.3771 6.3153 7.02905C6.06147 7.57964 5.8914 8.20999 5.52081 8.66796C2.30478 12.6456 0.736113 17.1867 0.896026 22.3221C0.989255 26.8582 2.61144 31.2254 5.49289 34.6975C5.86602 35.158 6.05385 35.7781 6.32799 36.3209Z" fill="white"/>
<path d="M12.0469 40.5069C12.4505 40.5069 12.8997 40.3885 13.2526 40.5249C16.5626 41.8506 20.1468 42.3175 23.6799 41.8833C24.6292 41.7624 25.6039 41.8653 26.7792 41.8653C24.1647 43.6277 15.6005 43.3061 12.0469 40.5069Z" fill="white"/>
<path d="M304.731 0.177509C304.182 2.10457 302.832 2.84298 300.86 2.77351C299.169 2.71434 297.946 1.90646 297.321 0.172363C298.316 0.429648 299.098 0.712661 299.921 0.831012C300.718 0.95947 301.53 0.975055 302.332 0.877323C303.149 0.771837 303.931 0.419357 304.731 0.177509Z" fill="white"/>
<path d="M187.915 20.6473C187.58 20.1327 187.03 19.649 186.964 19.1036C186.932 18.9212 186.946 18.7337 187.004 18.5582C187.062 18.3828 187.163 18.2249 187.297 18.0992C187.432 17.9735 187.595 17.8839 187.772 17.8387C187.949 17.7935 188.135 17.794 188.311 17.8403C188.791 17.9587 189.408 18.6945 189.438 19.1885C189.469 19.6825 188.817 20.1713 188.466 20.6627L187.915 20.6473Z" fill="white"/>
</svg>
