<svg width="238" height="151" viewBox="0 0 238 151" fill="none" xmlns="http://www.w3.org/2000/svg">
<path fill-rule="evenodd" clip-rule="evenodd" d="M130.332 1.41917C130.332 2.20296 129.698 2.83835 128.915 2.83835C128.133 2.83835 127.499 2.20296 127.499 1.41917C127.499 0.635385 128.133 0 128.915 0C129.698 0 130.332 0.635385 130.332 1.41917ZM129.765 1.41917C129.765 1.88945 129.385 2.27068 128.915 2.27068C128.446 2.27068 128.065 1.88945 128.065 1.41917C128.065 0.9489 128.446 0.567669 128.915 0.567669C129.385 0.567669 129.765 0.9489 129.765 1.41917Z" fill="#001F4A"/>
<path fill-rule="evenodd" clip-rule="evenodd" d="M79.332 18.4492C79.332 19.233 78.6978 19.8684 77.9154 19.8684C77.133 19.8684 76.4987 19.233 76.4987 18.4492C76.4987 17.6655 77.133 17.0301 77.9154 17.0301C78.6978 17.0301 79.332 17.6655 79.332 18.4492ZM78.7654 18.4492C78.7654 18.9195 78.3848 19.3008 77.9154 19.3008C77.4459 19.3008 77.0654 18.9195 77.0654 18.4492C77.0654 17.979 77.4459 17.5977 77.9154 17.5977C78.3848 17.5977 78.7654 17.979 78.7654 18.4492Z" fill="#001F4A"/>
<path fill-rule="evenodd" clip-rule="evenodd" d="M159.515 63.5789C160.298 63.5789 160.932 62.9436 160.932 62.1598C160.932 61.376 160.298 60.7406 159.515 60.7406C158.733 60.7406 158.099 61.376 158.099 62.1598C158.099 62.9436 158.733 63.5789 159.515 63.5789ZM159.515 63.0113C159.985 63.0113 160.365 62.63 160.365 62.1598C160.365 61.6895 159.985 61.3083 159.515 61.3083C159.046 61.3083 158.665 61.6895 158.665 62.1598C158.665 62.63 159.046 63.0113 159.515 63.0113Z" fill="#001F4A"/>
<path fill-rule="evenodd" clip-rule="evenodd" d="M96.8987 63.8628C96.8987 64.6466 96.2644 65.282 95.482 65.282C94.6996 65.282 94.0654 64.6466 94.0654 63.8628C94.0654 63.079 94.6996 62.4436 95.482 62.4436C96.2644 62.4436 96.8987 63.079 96.8987 63.8628ZM96.332 63.8628C96.332 64.3331 95.9515 64.7143 95.482 64.7143C95.0126 64.7143 94.632 64.3331 94.632 63.8628C94.632 63.3925 95.0126 63.0113 95.482 63.0113C95.9515 63.0113 96.332 63.3925 96.332 63.8628Z" fill="#001F4A"/>
<path fill-rule="evenodd" clip-rule="evenodd" d="M208.249 126.023C209.031 126.023 209.665 125.387 209.665 124.603C209.665 123.82 209.031 123.184 208.249 123.184C207.466 123.184 206.832 123.82 206.832 124.603C206.832 125.387 207.466 126.023 208.249 126.023ZM208.249 125.455C208.718 125.455 209.099 125.074 209.099 124.603C209.099 124.133 208.718 123.752 208.249 123.752C207.779 123.752 207.399 124.133 207.399 124.603C207.399 125.074 207.779 125.455 208.249 125.455Z" fill="#001F4A"/>
<path fill-rule="evenodd" clip-rule="evenodd" d="M200.599 30.3703C200.599 31.1541 199.964 31.7895 199.182 31.7895C198.4 31.7895 197.765 31.1541 197.765 30.3703C197.765 29.5865 198.4 28.9511 199.182 28.9511C199.964 28.9511 200.599 29.5865 200.599 30.3703ZM200.032 30.3703C200.032 30.8406 199.651 31.2218 199.182 31.2218C198.713 31.2218 198.332 30.8406 198.332 30.3703C198.332 29.9 198.713 29.5188 199.182 29.5188C199.651 29.5188 200.032 29.9 200.032 30.3703Z" fill="#001F4A"/>
<path fill-rule="evenodd" clip-rule="evenodd" d="M58.6487 89.1241C59.4311 89.1241 60.0654 88.4887 60.0654 87.7049C60.0654 86.9211 59.4311 86.2857 58.6487 86.2857C57.8663 86.2857 57.232 86.9211 57.232 87.7049C57.232 88.4887 57.8663 89.1241 58.6487 89.1241ZM58.6487 88.5564C59.1181 88.5564 59.4987 88.1752 59.4987 87.7049C59.4987 87.2346 59.1181 86.8534 58.6487 86.8534C58.1793 86.8534 57.7987 87.2346 57.7987 87.7049C57.7987 88.1752 58.1793 88.5564 58.6487 88.5564Z" fill="#001F4A"/>
<path fill-rule="evenodd" clip-rule="evenodd" d="M31.1654 64.4305C31.1654 65.2142 30.5311 65.8496 29.7487 65.8496C28.9663 65.8496 28.332 65.2142 28.332 64.4305C28.332 63.6467 28.9663 63.0113 29.7487 63.0113C30.5311 63.0113 31.1654 63.6467 31.1654 64.4305ZM30.5987 64.4305C30.5987 64.9007 30.2181 65.282 29.7487 65.282C29.2793 65.282 28.8987 64.9007 28.8987 64.4305C28.8987 63.9602 29.2793 63.5789 29.7487 63.5789C30.2181 63.5789 30.5987 63.9602 30.5987 64.4305Z" fill="#001F4A"/>
<path d="M154.067 2.84765L153.309 5.17198C153.059 5.93919 152.368 6.47653 151.564 6.52878C150.528 6.59606 149.638 7.28794 149.316 8.27579L148.558 10.6001C148.51 10.7491 148.591 10.9094 148.74 10.9581C148.889 11.0067 149.049 10.9254 149.097 10.7764L149.855 8.45205C150.105 7.68485 150.796 7.14751 151.6 7.09526C152.636 7.02798 153.526 6.3361 153.848 5.34825L154.606 3.02392C154.654 2.87491 154.573 2.71465 154.424 2.66598C154.276 2.61731 154.116 2.69864 154.067 2.84765Z" fill="#001F4A"/>
<path d="M193.075 48.6496L194.675 47.1746C194.791 47.0685 194.798 46.8889 194.692 46.7735C194.586 46.6582 194.407 46.6507 194.292 46.7568L192.691 48.2318C191.814 49.0403 191.552 50.3205 192.04 51.41C192.428 52.2765 192.219 53.2948 191.522 53.9379L189.921 55.4128C189.806 55.5189 189.798 55.6985 189.904 55.8139C190.01 55.9292 190.19 55.9367 190.305 55.8306L191.905 54.3556C192.783 53.5471 193.045 52.2669 192.557 51.1775C192.168 50.3109 192.377 49.2927 193.075 48.6496Z" fill="#001F4A"/>
<path d="M31.5085 46.7265L32.583 48.6205C33.0515 49.4463 33.995 49.8791 34.9252 49.695C36.0947 49.4635 37.2808 50.0077 37.8698 51.0459L38.9444 52.9399C39.0217 53.0762 38.9741 53.2495 38.8381 53.327C38.702 53.4044 38.5291 53.3567 38.4518 53.2204L37.3772 51.3264C36.9087 50.5006 35.9652 50.0678 35.035 50.2519C33.8655 50.4834 32.6794 49.9392 32.0904 48.901L31.0158 47.007C30.9385 46.8707 30.9861 46.6974 31.1221 46.6199C31.2582 46.5425 31.4311 46.5902 31.5085 46.7265Z" fill="#001F4A"/>
<path d="M59.0475 47.9983C58.2826 48.1046 57.6425 47.4214 57.7969 46.6634L57.9671 45.8282C57.9984 45.6746 57.8995 45.5247 57.7462 45.4934C57.5929 45.462 57.4432 45.5611 57.4119 45.7147L57.2417 46.5499C57.0091 47.6916 57.9732 48.7208 59.1254 48.5605L59.1855 48.5522C59.948 48.4461 60.5728 49.1513 60.3772 49.8971C60.079 51.0348 61.0319 52.1103 62.1949 51.9486C62.9574 51.8425 63.5822 52.5477 63.3866 53.2935C63.0883 54.4311 64.0413 55.5067 65.2043 55.3449C65.9668 55.2389 66.5916 55.944 66.396 56.6899C66.0977 57.8275 67.0507 58.903 68.2137 58.7413C68.9762 58.6353 69.601 59.3404 69.4054 60.0863C69.1071 61.2239 70.0601 62.2994 71.2231 62.1377L71.2832 62.1293C72.0481 62.023 72.6882 62.7062 72.5338 63.4642L72.3636 64.2994C72.3323 64.453 72.4312 64.6029 72.5845 64.6342C72.7379 64.6656 72.8875 64.5665 72.9188 64.4129L73.089 63.5777C73.3216 62.436 72.3575 61.4068 71.2053 61.5671L71.1452 61.5754C70.3827 61.6815 69.7579 60.9763 69.9535 60.2305C70.2518 59.0928 69.2988 58.0173 68.1358 58.179C67.3733 58.2851 66.7485 57.5799 66.9441 56.8341C67.2424 55.6965 66.2894 54.6209 65.1264 54.7827C64.3639 54.8887 63.7392 54.1836 63.9347 53.4377C64.233 52.3001 63.28 51.2246 62.117 51.3863C61.3545 51.4923 60.7298 50.7872 60.9253 50.0413C61.2236 48.9037 60.2706 47.8282 59.1076 47.9899L59.0475 47.9983Z" fill="#001F4A"/>
<path d="M174.579 21.7608C173.825 21.9307 173.466 22.7958 173.877 23.451L173.909 23.5025C174.533 24.4986 173.945 25.8105 172.787 26.0048C172.028 26.1321 171.642 26.9922 172.052 27.6453C172.676 28.6414 172.088 29.9533 170.93 30.1475C170.171 30.2749 169.785 31.135 170.195 31.7881C170.819 32.7842 170.231 34.0961 169.073 34.2903C168.314 34.4177 167.928 35.2778 168.337 35.9308C168.962 36.927 168.374 38.2389 167.216 38.4331C166.457 38.5605 166.071 39.4206 166.48 40.0736L166.513 40.1252C167.131 41.112 166.59 42.4151 165.455 42.671L164.625 42.8582C164.472 42.8926 164.321 42.7965 164.286 42.6436C164.252 42.4907 164.348 42.3388 164.501 42.3043L165.331 42.1171C166.084 41.9473 166.443 41.0822 166.033 40.427L166 40.3755C165.376 39.3794 165.964 38.0675 167.122 37.8732C167.881 37.7459 168.267 36.8858 167.858 36.2327C167.233 35.2366 167.821 33.9247 168.979 33.7305C169.739 33.6031 170.124 32.743 169.715 32.0899C169.09 31.0938 169.678 29.7819 170.836 29.5877C171.596 29.4603 171.981 28.6002 171.572 27.9472C170.947 26.951 171.536 25.6391 172.694 25.4449C173.453 25.3175 173.838 24.4574 173.429 23.8044L173.397 23.7528C172.778 22.766 173.319 21.4629 174.454 21.207L175.284 21.0198C175.437 20.9854 175.589 21.0815 175.623 21.2344C175.657 21.3873 175.562 21.5392 175.409 21.5737L174.579 21.7608Z" fill="#001F4A"/>
<path d="M93.9982 3.60853C93.2572 3.39073 92.9538 2.5044 93.4054 1.8769L93.9031 1.18546C93.9946 1.0583 93.9659 0.880907 93.839 0.789229C93.712 0.697551 93.535 0.726308 93.4434 0.85346L92.9458 1.5449C92.2655 2.4901 92.7225 3.82517 93.8387 4.15323L93.8969 4.17036C94.6356 4.38747 94.9161 5.28747 94.4319 5.887C93.6935 6.80146 94.1213 8.17422 95.2479 8.50537C95.9866 8.72248 96.267 9.62248 95.7829 10.222C95.0444 11.1365 95.4722 12.5092 96.5989 12.8404C97.3375 13.0575 97.618 13.9575 97.1339 14.557C96.3954 15.4715 96.8232 16.8442 97.9499 17.1754C98.6885 17.3925 98.969 18.2925 98.4848 18.892C97.7464 19.8065 98.1742 21.1792 99.3008 21.5104L99.3591 21.5275C100.1 21.7453 100.404 22.6316 99.9519 23.2591L99.4542 23.9506C99.3627 24.0777 99.3914 24.2551 99.5184 24.3468C99.6453 24.4385 99.8224 24.4097 99.9139 24.2826L100.412 23.5911C101.092 22.6459 100.635 21.3109 99.5187 20.9828L99.4604 20.9657C98.7217 20.7486 98.4413 19.8486 98.9254 19.249C99.6639 18.3346 99.2361 16.9618 98.1094 16.6307C97.3708 16.4136 97.0903 15.5136 97.5744 14.914C98.3129 13.9996 97.8851 12.6268 96.7584 12.2957C96.0198 12.0786 95.7393 11.1786 96.2234 10.579C96.9619 9.66457 96.5341 8.29181 95.4075 7.96066C94.6688 7.74356 94.3883 6.84356 94.8725 6.24403C95.6109 5.32957 95.1831 3.9568 94.0565 3.62566L93.9982 3.60853Z" fill="#001F4A"/>
<path d="M190.399 80.609C191.651 80.609 192.665 79.5924 192.665 78.3383C192.665 77.0843 191.651 76.0677 190.399 76.0677C189.147 76.0677 188.132 77.0843 188.132 78.3383C188.132 79.5924 189.147 80.609 190.399 80.609Z" fill="#001F4A"/>
<path d="M49.8654 130.564C51.1172 130.564 52.132 129.547 52.132 128.293C52.132 127.039 51.1172 126.023 49.8654 126.023C48.6135 126.023 47.5987 127.039 47.5987 128.293C47.5987 129.547 48.6135 130.564 49.8654 130.564Z" fill="#001F4A"/>
<path fill-rule="evenodd" clip-rule="evenodd" d="M139.965 39.7368C139.965 43.1855 137.175 45.9812 133.732 45.9812C133.143 45.9812 132.573 45.8993 132.033 45.7464C132.543 47.0402 132.823 48.45 132.823 49.9254C132.823 52.1049 132.212 54.1413 131.151 55.8719C130.515 56.9102 129.717 57.8385 128.793 58.6215C126.814 60.2978 124.255 61.3084 121.46 61.3084C115.499 61.3084 110.609 56.7092 110.135 50.8596C109.366 50.7144 108.799 50.2056 108.799 49.6002C108.799 48.9757 109.403 48.454 110.208 48.3282C110.833 43.8721 114.033 40.2438 118.253 39.0023C119.27 38.703 120.346 38.5425 121.46 38.5425C123.689 38.5425 125.769 39.1856 127.523 40.2967C127.507 40.1123 127.499 39.9255 127.499 39.7368C127.499 36.2882 130.289 33.4925 133.732 33.4925C137.175 33.4925 139.965 36.2882 139.965 39.7368ZM117.244 40.5861C114.115 42.0061 111.825 44.9579 111.331 48.486L111.214 49.3202L110.383 49.45C110.194 49.4794 110.062 49.5444 109.986 49.6002C110.056 49.6515 110.175 49.7117 110.345 49.7439L111.195 49.9043L111.265 50.7677C111.692 56.0327 116.094 60.173 121.46 60.173C123.808 60.173 125.971 59.3808 127.697 58.0486C126.133 57.1691 124.696 56.0894 123.42 54.8444C123.673 54.5718 123.899 54.254 124.085 53.8971C124.959 52.2265 124.637 50.3316 123.367 49.6647C122.345 49.1285 121.021 49.5496 120.087 50.6036C118.344 47.6592 117.317 44.2399 117.244 40.5861ZM109.919 49.6639C109.919 49.6639 109.92 49.663 109.921 49.6612C109.92 49.6622 109.919 49.6639 109.919 49.6639Z" fill="#001F4A"/>
<path fill-rule="evenodd" clip-rule="evenodd" d="M72.532 93.0977L58.932 119.778L72.532 122.74V139.647L124.665 151L125.232 150.863V150.862L171.132 139.647V121.094L188.132 116.94L171.132 93.0977L147.277 87.9028C144.551 73.6712 134.247 63.4189 122.948 64.4092C122.758 64.4258 122.57 64.4454 122.382 64.4681L122.399 64.4304C114.17 65.4608 101.273 71.8688 96.4181 87.2616L72.532 93.0977ZM73.1444 94.3929L60.6105 118.982L110.453 129.836L122.987 105.247L73.1444 94.3929ZM75.0609 93.6485L94.5591 97.8947C94.6184 96.2338 94.8209 94.3597 95.1987 92.2462C95.43 90.9526 95.7137 89.7115 96.0445 88.5215L75.0609 93.6485ZM147.489 89.1107C147.632 90.0131 147.745 90.9302 147.827 91.8603C148.034 94.2299 148.022 96.5527 147.813 98.7953L168.618 93.7121L147.489 89.1107ZM106.795 100.247C106.792 100.356 106.79 100.46 106.789 100.558L105.66 100.312L105.662 100.221C105.684 99.2328 105.758 97.84 105.965 96.2141C106.376 92.9693 107.318 88.7616 109.453 84.9899C109.608 84.7172 109.954 84.6215 110.226 84.7761C110.498 84.9308 110.593 85.2773 110.439 85.55C108.405 89.1437 107.491 93.1897 107.089 96.3572C106.888 97.9374 106.816 99.2904 106.795 100.247ZM124.099 105.563V149.715L73.6654 138.732V122.987L111.065 131.132L124.099 105.563ZM169.999 138.755L125.232 149.693V105.481L125.375 105.446L141.665 128.293L169.999 121.37V138.755ZM142.142 127.008L126.561 105.157L170.656 94.3828L186.236 116.234L142.142 127.008Z" fill="#001F4A"/>
</svg>
