<svg width="57" height="57" viewBox="0 0 57 57" fill="none" xmlns="http://www.w3.org/2000/svg">
<circle cx="28.5" cy="28.5" r="28.5" fill="white"/>
<path d="M20.7983 39.9429L31.405 28.4846L20.7983 17.0263C20.5452 16.7529 20.3444 16.4283 20.2075 16.0711C20.0705 15.7139 20 15.331 20 14.9444C20 14.5577 20.0705 14.1748 20.2075 13.8176C20.3444 13.4604 20.5452 13.1358 20.7983 12.8624C21.0514 12.589 21.3518 12.3721 21.6825 12.2241C22.0132 12.0762 22.3676 12 22.7255 12C23.0835 12 23.4379 12.0762 23.7686 12.2241C24.0992 12.3721 24.3997 12.589 24.6528 12.8624L37.2004 26.4174C38.2665 27.5691 38.2665 29.4296 37.2004 30.5814L24.6528 44.1364C24.3999 44.4101 24.0995 44.6273 23.7688 44.7755C23.4381 44.9237 23.0836 45 22.7255 45C22.3675 45 22.013 44.9237 21.6823 44.7755C21.3516 44.6273 21.0512 44.4101 20.7983 44.1364C19.7595 42.9846 19.7322 41.0946 20.7983 39.9429Z" fill="#0059F7"/>
</svg>
