<svg width="132" height="64" viewBox="0 0 132 64" fill="none" xmlns="http://www.w3.org/2000/svg">
<path d="M108.01 38.5163C107.891 38.5212 107.772 38.5025 107.66 38.4611C107.548 38.4198 107.446 38.3567 107.358 38.2755C107.271 38.1943 107.2 38.0965 107.15 37.9878C107.1 37.879 107.072 37.7615 107.067 37.6418V22.7019C107.124 22.5039 107.243 22.3298 107.406 22.2058C107.57 22.0818 107.769 22.0147 107.973 22.0147C108.178 22.0147 108.377 22.0818 108.541 22.2058C108.704 22.3298 108.823 22.5039 108.88 22.7019V37.6965C108.87 37.9349 108.768 38.1601 108.595 38.3236C108.422 38.4871 108.193 38.5759 107.955 38.571L108.01 38.5163ZM109.767 19.1855H106.252C103.28 19.1855 103.117 21.5905 103.117 23.1392V37.3503C103.117 38.8989 103.28 41.3039 106.252 41.3039H109.749C112.703 41.3039 112.884 38.8989 112.884 37.3503V23.1392C112.884 21.5905 112.703 19.1855 109.749 19.1855" fill="white"/>
<path d="M43.8438 19.1855H51.9074V21.9367H48.0658V41.3039H43.8438V19.1855Z" fill="white"/>
<path d="M52.5234 41.3039H56.6549L57.0536 35.419H59.065L59.4455 41.3039H63.6857L61.3844 19.1855H54.7341L52.5234 41.3039ZM57.2167 33.0505L57.9415 21.9731H58.2495L58.9743 33.0505H57.2167Z" fill="white"/>
<path d="M69.6504 33.5607V37.7329C69.6429 37.8244 69.6542 37.9165 69.6834 38.0034C69.7126 38.0904 69.7592 38.1705 69.8202 38.2387C69.8813 38.3069 69.9556 38.3619 70.0386 38.4003C70.1215 38.4386 70.2114 38.4595 70.3027 38.4617C70.487 38.4522 70.6602 38.3707 70.7855 38.2345C70.9108 38.0984 70.9781 37.9183 70.9732 37.7329V32.5768C70.9732 31.8845 70.8463 31.1375 69.2698 31.1375H67.5665V28.6961H69.3786C70.5745 28.6961 71.0094 28.4046 71.0094 27.0563V22.6472C71.0118 22.5563 70.9964 22.4658 70.964 22.3809C70.9316 22.2959 70.8829 22.2183 70.8206 22.1523C70.7583 22.0863 70.6838 22.0333 70.6011 21.9963C70.5185 21.9593 70.4294 21.939 70.3389 21.9367C70.2485 21.9364 70.159 21.955 70.0761 21.9913C69.9932 22.0276 69.9187 22.0809 69.8573 22.1477C69.796 22.2145 69.7491 22.2934 69.7197 22.3794C69.6904 22.4654 69.6791 22.5566 69.6866 22.6472V26.2911H65.5008V23.1392C65.5008 21.5905 65.682 19.1855 68.6356 19.1855H72.151C75.1046 19.1855 75.2859 21.5905 75.2859 23.1392V26.6737C75.3393 27.0701 75.3031 27.4735 75.18 27.8539C75.057 28.2342 74.8502 28.5818 74.575 28.8707C74.2999 29.1596 73.9635 29.3824 73.5909 29.5225C73.2182 29.6626 72.819 29.7164 72.4228 29.6799V29.8986C72.8222 29.847 73.228 29.8905 73.6077 30.0254C73.9873 30.1603 74.3302 30.3829 74.6087 30.6753C74.8872 30.9678 75.0935 31.3218 75.2111 31.709C75.3288 32.0962 75.3543 32.5058 75.2859 32.9048V37.3503C75.2859 38.8989 75.1046 41.3039 72.151 41.3039H68.545C65.5914 41.3039 65.4102 38.8989 65.4102 37.3503V33.5607H69.6504Z" fill="white"/>
<path d="M77.9844 19.1855H87.7695V41.3039H83.8192V21.9367H81.9165V41.3039H77.9844V19.1855Z" fill="white"/>
<path d="M90.8711 41.3039H95.0932V33.7793H97.5032C100.475 33.7793 100.946 31.3925 100.946 29.8257V23.1392C100.946 21.5905 100.475 19.1855 97.5032 19.1855H90.8711V41.3039ZM95.0932 31.3561V21.9367H96.1985C96.6697 21.9367 96.9958 22.3375 96.9958 23.0298V30.3176C96.9958 31.0099 96.6697 31.429 96.1985 31.429L95.0932 31.3561Z" fill="white"/>
<path d="M126.386 19.1855H131.895V41.3039H127.654V27.4389H127.509L125.335 41.3039H121.946L119.772 27.4389H119.627V41.3039H115.387V19.1855H120.877L123.632 34.7267L126.386 19.1855Z" fill="white"/>
<path d="M34.8194 21.426C34.7913 23.4524 34.5729 25.4716 34.1671 27.4566C34.2493 24.5839 34.0062 21.711 33.4422 18.8935C32.7119 15.6783 31.5666 12.5729 30.0356 9.65628C28.5189 12.5673 27.3917 15.6671 26.6833 18.8753C26.1285 21.7439 25.8674 24.6621 25.9041 27.5842C25.4429 24.8159 25.2548 22.0087 25.3424 19.2032C25.4909 16.63 25.8976 14.0785 26.5564 11.5875C27.4005 8.66013 28.5674 5.8368 30.0356 3.17018C31.5333 5.76271 32.7136 8.52783 33.551 11.4053C34.4344 14.6702 34.8613 18.0428 34.8194 21.426ZM30.0537 38.6069C28.8969 36.3514 28.2766 33.8567 28.2416 31.3191C28.2461 28.8067 28.8686 26.3344 30.0537 24.1225C31.1209 26.2641 31.7085 28.6149 31.7751 31.0094C31.8213 33.6496 31.1977 36.2581 29.9631 38.5887L30.0537 38.6069ZM35.1093 11.4418C34.0654 7.35716 32.3241 3.48576 29.9631 0C27.9275 3.09702 26.3297 6.46334 25.2155 10.0024C23.8564 14.6764 23.4496 19.5782 24.0196 24.414C24.457 27.58 25.2723 30.6814 26.4477 33.6512C27.4079 35.9155 28.6239 38.0613 30.0718 40.0462C33.1619 35.5786 35.1609 30.4415 35.9066 25.0517C36.5976 20.5132 36.3508 15.8802 35.1818 11.4418" fill="white"/>
<path d="M21.8661 41.304V48.2638C23.0278 47.0989 24.6015 46.4447 26.2422 46.4447C27.8829 46.4447 29.4566 47.0989 30.6183 48.2638C31.1952 48.8366 31.6533 49.5189 31.9659 50.271C32.2785 51.0232 32.4395 51.8303 32.4395 52.6455C32.4395 53.4607 32.2785 54.2678 31.9659 55.02C31.6533 55.7722 31.1952 56.4545 30.6183 57.0273C28.2956 59.3515 25.1521 60.6562 21.8752 60.6562C18.5982 60.6562 15.4547 59.3515 13.132 57.0273C11.1053 55.0013 9.8446 52.3282 9.56677 49.4683C9.28895 46.6084 10.0114 43.7406 11.6099 41.3586C12.0517 40.6989 12.5619 40.0881 13.132 39.5367C14.2796 38.3788 15.6438 37.4607 17.1459 36.8353C18.648 36.2099 20.2584 35.8896 21.8842 35.8928V19.2949C18.2479 19.3049 14.6709 20.2233 11.4751 21.9676C8.2792 23.7119 5.56453 26.2273 3.57514 29.2879C1.58574 32.3484 0.383977 35.8581 0.0778851 39.5013C-0.228207 43.1446 0.370967 46.8072 1.82154 50.1599C3.27212 53.5126 5.52862 56.4503 8.38819 58.7089C11.2478 60.9675 14.6207 62.4762 18.2039 63.0994C21.7871 63.7225 25.4681 63.4406 28.9161 62.279C32.364 61.1173 35.4708 59.1123 37.9571 56.4443V41.304H21.8661Z" fill="white"/>
<path d="M127.941 58.1928C127.941 60.288 126.981 60.6706 124.553 60.6706H122.324V51.069H124.553V54.7129H124.933C127.126 54.7129 127.941 55.2413 127.941 57.1543V58.1928ZM109.313 52.8727H107.628V60.6706H105.49V52.8727H103.678V51.0508H109.313V52.8727ZM92.135 57.2454C92.135 59.1949 91.1565 59.7232 88.9458 59.7232V60.6706H86.7894V59.7232C84.5787 59.7232 83.5821 59.1949 83.5821 57.2454V54.2392C83.5821 52.2897 84.5425 51.7796 86.7894 51.7796V51.069H88.9458V51.7796C91.1927 51.7796 92.135 52.2897 92.135 54.2392V57.2454ZM71.9125 52.8727H68.8501V54.6947H71.5863V56.5166H68.8501V58.7758H71.9125V60.5978H66.4763V51.0508H71.9125V52.8727ZM53.3933 60.6706H51.1644V56.462H50.0229V60.6706H47.7759V51.069H50.0229V54.7129H51.1644V51.069H53.3933V60.6706ZM131.891 48.6641H43.8438V63.4218H131.891V48.6641ZM85.7565 54.1299V57.209C85.7565 57.7738 85.9378 57.9013 86.427 57.9013H86.7894V53.474H86.427C85.9378 53.474 85.7565 53.6197 85.7565 54.1845V54.1299ZM125.06 56.462H124.553V58.9762H125.06C125.549 58.9762 125.694 58.8487 125.694 58.3021V57.1361C125.694 56.5895 125.549 56.462 125.06 56.462ZM89.29 53.474H88.9458V57.956H89.29C89.7974 57.956 89.9786 57.8102 89.9786 57.2454V54.1663C89.9786 53.6015 89.7974 53.474 89.29 53.474Z" fill="white"/>
</svg>
