<svg width="37" height="37" viewBox="0 0 37 37" fill="none" xmlns="http://www.w3.org/2000/svg">
<path d="M18.5 0C8.30499 0 0 8.30499 0 18.5C0 28.695 8.30499 37 18.5 37C28.695 37 37 28.695 37 18.5C37 8.30499 28.695 0 18.5 0ZM18.5 2.84615C27.1608 2.84615 34.1538 9.83924 34.1538 18.5C34.1538 27.1608 27.1608 34.1538 18.5 34.1538C9.83924 34.1538 2.84615 27.1608 2.84615 18.5C2.84615 9.83924 9.83924 2.84615 18.5 2.84615ZM17.0769 8.53846V11.3846H19.9231V8.53846H17.0769ZM17.0769 14.2308V28.4615H19.9231V14.2308H17.0769Z" fill="white"/>
</svg>
