<svg width="135" height="40" viewBox="0 0 135 40" fill="none" xmlns="http://www.w3.org/2000/svg">
<path d="M3.89473 16H0.491426L5.67707 0.978512H9.76983L14.9481 16H11.5448L7.78213 4.41116H7.66477L3.89473 16ZM3.68202 10.0956H11.7209V12.5747H3.68202V10.0956ZM15.942 19.6233V13.4695H16.9615C17.3087 13.2201 17.6265 12.8681 17.915 12.4133C18.2035 11.9537 18.4505 11.3205 18.6558 10.5136C18.8612 9.70193 19.0079 8.64084 19.0959 7.33037L19.5213 0.978512H29.4599V13.4695H31.1028V19.6087H28.0516V16H18.9932V19.6233H15.942ZM20.6289 13.4695H26.4086V3.597H22.3819L22.1472 7.33037C22.0836 8.323 21.9785 9.20317 21.8318 9.97087C21.69 10.7386 21.5164 11.4109 21.311 11.9879C21.1105 12.56 20.8831 13.0539 20.6289 13.4695ZM35.6229 16H32.2195L37.4052 0.978512H41.498L46.6763 16H43.273L39.5103 4.41116H39.3929L35.6229 16ZM35.4101 10.0956H43.449V12.5747H35.4101V10.0956ZM61.254 0.978512V16H58.1147V3.56033H52.0416V16H48.9023V0.978512H61.254ZM63.7056 3.597V0.978512H76.0426V3.597H71.4437V16H68.3045V3.597H63.7056ZM78.828 16H75.4247L80.6103 0.978512H84.7031L89.8814 16H86.4781L82.7154 4.41116H82.598L78.828 16ZM78.6153 10.0956H86.6541V12.5747H78.6153V10.0956ZM106.161 13.4622L105.977 19.55H102.955V16H101.899V13.4622H106.161ZM91.6894 16V0.978512H94.7406V13.4475H100.99V0.978512H104.078V16H91.6894ZM108.088 0.978512H111.257V10.4256H111.381L117.872 0.978512H120.652V16H117.476V6.54556H117.366L110.838 16H108.088V0.978512ZM134.806 16H131.638V3.575H129.496C128.885 3.575 128.376 3.66546 127.971 3.84638C127.57 4.02242 127.269 4.28158 127.068 4.62386C126.868 4.96615 126.768 5.38667 126.768 5.88543C126.768 6.3793 126.868 6.79249 127.068 7.125C127.269 7.45751 127.57 7.70689 127.971 7.87314C128.371 8.03939 128.875 8.12252 129.481 8.12252H132.929V10.675H128.968C127.819 10.675 126.836 10.4843 126.019 10.1029C125.203 9.72149 124.579 9.17383 124.149 8.45992C123.719 7.74112 123.504 6.88295 123.504 5.88543C123.504 4.8928 123.714 4.02975 124.134 3.29628C124.56 2.55792 125.174 1.98826 125.975 1.58729C126.782 1.18144 127.753 0.978512 128.887 0.978512H134.806V16ZM126.702 9.16405H130.127L126.474 16H122.968L126.702 9.16405ZM1.36426 39V27.7339H10.8774V39H8.31756V29.9123H3.90207V39H1.36426ZM13.3547 39V27.7339H20.682V29.4447H15.3956V32.5033H20.3025V34.2141H15.3956V37.2892H20.7261V39H13.3547ZM22.7642 39V27.7339H26.989C27.8545 27.7339 28.5806 27.8952 29.1674 28.218C29.7578 28.5407 30.2034 28.9845 30.5041 29.5492C30.8085 30.1103 30.9607 30.7485 30.9607 31.4636C30.9607 32.1861 30.8085 32.8278 30.5041 33.3889C30.1998 33.9501 29.7505 34.392 29.1564 34.7147C28.5623 35.0338 27.8306 35.1933 26.9615 35.1933H24.1615V33.5155H26.6864C27.1925 33.5155 27.6069 33.4275 27.9297 33.2514C28.2524 33.0754 28.4908 32.8333 28.6448 32.5253C28.8025 32.2172 28.8813 31.8633 28.8813 31.4636C28.8813 31.0638 28.8025 30.7118 28.6448 30.4074C28.4908 30.103 28.2506 29.8665 27.9242 29.6978C27.6014 29.5254 27.1852 29.4392 26.6754 29.4392H24.8051V39H22.7642ZM42.3767 31.5351H40.3194C40.2607 31.1977 40.1525 30.8988 39.9948 30.6384C39.8371 30.3744 39.6409 30.1507 39.4062 29.9673C39.1715 29.7839 38.9038 29.6464 38.603 29.5547C38.306 29.4594 37.9851 29.4117 37.6404 29.4117C37.0279 29.4117 36.4851 29.5657 36.0121 29.8738C35.539 30.1782 35.1686 30.6256 34.9008 31.216C34.6331 31.8028 34.4993 32.5198 34.4993 33.3669C34.4993 34.2288 34.6331 34.9549 34.9008 35.5454C35.1722 36.1321 35.5426 36.5759 36.0121 36.8766C36.4851 37.1737 37.0261 37.3222 37.6349 37.3222C37.9723 37.3222 38.2876 37.2782 38.581 37.1902C38.8781 37.0985 39.144 36.9646 39.3787 36.7886C39.6171 36.6126 39.8169 36.3962 39.9783 36.1395C40.1433 35.8827 40.257 35.5894 40.3194 35.2593L42.3767 35.2703C42.2997 35.8057 42.1329 36.3082 41.8762 36.7776C41.6231 37.247 41.2912 37.6614 40.8805 38.0208C40.4697 38.3765 39.9893 38.6553 39.4392 38.857C38.8891 39.055 38.2785 39.154 37.6074 39.154C36.6172 39.154 35.7333 38.9248 34.9559 38.4664C34.1784 38.008 33.5659 37.346 33.1185 36.4805C32.6711 35.615 32.4474 34.5772 32.4474 33.3669C32.4474 32.153 32.6729 31.1152 33.124 30.2534C33.5751 29.3879 34.1894 28.7259 34.9669 28.2675C35.7443 27.8091 36.6245 27.5799 37.6074 27.5799C38.2345 27.5799 38.8176 27.6679 39.3567 27.8439C39.8958 28.0199 40.3762 28.2785 40.798 28.6196C41.2197 28.9569 41.5663 29.3714 41.8376 29.8628C42.1127 30.3505 42.2924 30.908 42.3767 31.5351ZM54.3126 33.3669C54.3126 34.5808 54.0852 35.6205 53.6305 36.486C53.1794 37.3479 52.5633 38.008 51.7821 38.4664C51.0047 38.9248 50.1227 39.154 49.1361 39.154C48.1496 39.154 47.2658 38.9248 46.4846 38.4664C45.7072 38.0043 45.091 37.3424 44.6363 36.4805C44.1852 35.615 43.9597 34.5772 43.9597 33.3669C43.9597 32.153 44.1852 31.1152 44.6363 30.2534C45.091 29.3879 45.7072 28.7259 46.4846 28.2675C47.2658 27.8091 48.1496 27.5799 49.1361 27.5799C50.1227 27.5799 51.0047 27.8091 51.7821 28.2675C52.5633 28.7259 53.1794 29.3879 53.6305 30.2534C54.0852 31.1152 54.3126 32.153 54.3126 33.3669ZM52.2607 33.3669C52.2607 32.5124 52.1269 31.7918 51.8592 31.205C51.5951 30.6146 51.2284 30.169 50.7589 29.8683C50.2895 29.5639 49.7486 29.4117 49.1361 29.4117C48.5237 29.4117 47.9828 29.5639 47.5133 29.8683C47.0439 30.169 46.6753 30.6146 46.4076 31.205C46.1436 31.7918 46.0116 32.5124 46.0116 33.3669C46.0116 34.2214 46.1436 34.9439 46.4076 35.5343C46.6753 36.1211 47.0439 36.5667 47.5133 36.8711C47.9828 37.1718 48.5237 37.3222 49.1361 37.3222C49.7486 37.3222 50.2895 37.1718 50.7589 36.8711C51.2284 36.5667 51.5951 36.1211 51.8592 35.5343C52.1269 34.9439 52.2607 34.2214 52.2607 33.3669ZM56.2421 39V27.7339H58.283V32.5033H63.5035V27.7339H65.5499V39H63.5035V34.2141H58.283V39H56.2421ZM69.2163 39H67.0379L71.0041 27.7339H73.5236L77.4953 39H75.3169L72.3079 30.0443H72.2199L69.2163 39ZM69.2878 34.5827H75.2289V36.222H69.2878V34.5827ZM78.2476 39V37.3057L78.5667 37.2892C78.9994 37.2635 79.3423 37.1076 79.5954 36.8216C79.8521 36.5355 80.0409 36.0753 80.162 35.4408C80.2867 34.8064 80.3692 33.9556 80.4095 32.8884L80.5965 27.7339H87.9789V39H85.9821V29.4117H82.4999L82.3239 33.521C82.2725 34.7532 82.1368 35.7746 81.9168 36.585C81.7004 37.3955 81.3447 38.0006 80.8496 38.4004C80.3582 38.8001 79.6742 39 78.7977 39H78.2476ZM91.6509 39H89.4725L93.4387 27.7339H95.9582L99.9299 39H97.7515L94.7425 30.0443H94.6544L91.6509 39ZM91.7224 34.5827H97.6635V36.222H91.7224V34.5827Z" fill="white"/>
</svg>
