<svg width="37" height="37" viewBox="0 0 37 37" fill="none" xmlns="http://www.w3.org/2000/svg">
<path d="M4.26923 0C1.92338 0 0 1.92338 0 4.26923V32.7308C0 35.0766 1.92338 37 4.26923 37H32.7308C35.0766 37 37 35.0766 37 32.7308V4.26923C37 1.92338 35.0766 0 32.7308 0H4.26923ZM4.26923 2.84615H32.7308C33.5312 2.84615 34.1538 3.46875 34.1538 4.26923V25.6154H31.3077C29.7401 25.6154 28.4615 24.3368 28.4615 22.7692V14.2308H25.6154V22.7692C25.6154 24.3368 24.3368 25.6154 22.7692 25.6154C21.2016 25.6154 19.9231 24.3368 19.9231 22.7692V8.53846H17.0769V22.7692C17.0769 24.3368 15.7984 25.6154 14.2308 25.6154C12.6632 25.6154 11.3846 24.3368 11.3846 22.7692V14.2308H8.53846V22.7692C8.53846 24.3368 7.25991 25.6154 5.69231 25.6154H2.84615V4.26923C2.84615 3.46875 3.46875 2.84615 4.26923 2.84615ZM9.96154 26.527C11.0066 27.7055 12.5297 28.4615 14.2308 28.4615C15.9318 28.4615 17.4549 27.7055 18.5 26.527C19.5451 27.7055 21.0682 28.4615 22.7692 28.4615C24.4703 28.4615 25.9934 27.7055 27.0385 26.527C28.0835 27.7055 29.6067 28.4615 31.3077 28.4615H34.1538V32.7308C34.1538 33.5312 33.5312 34.1538 32.7308 34.1538H4.26923C3.46875 34.1538 2.84615 33.5312 2.84615 32.7308V28.4615H5.69231C7.39333 28.4615 8.91647 27.7055 9.96154 26.527Z" fill="white"/>
</svg>
