<svg width="190" height="150" viewBox="0 0 190 150" fill="none" xmlns="http://www.w3.org/2000/svg">
<path fill-rule="evenodd" clip-rule="evenodd" d="M93.3355 1.44788C93.3355 2.24752 92.6886 2.89575 91.8905 2.89575C91.0924 2.89575 90.4454 2.24752 90.4454 1.44788C90.4454 0.648237 91.0924 0 91.8905 0C92.6886 0 93.3355 0.648237 93.3355 1.44788ZM92.7575 1.44788C92.7575 1.92766 92.3693 2.3166 91.8905 2.3166C91.4116 2.3166 91.0234 1.92766 91.0234 1.44788C91.0234 0.968093 91.4116 0.579151 91.8905 0.579151C92.3693 0.579151 92.7575 0.968093 92.7575 1.44788Z" fill="currentColor"/>
<path fill-rule="evenodd" clip-rule="evenodd" d="M41.3132 18.8224C41.3132 19.622 40.6663 20.2703 39.8682 20.2703C39.0701 20.2703 38.4231 19.622 38.4231 18.8224C38.4231 18.0228 39.0701 17.3745 39.8682 17.3745C40.6663 17.3745 41.3132 18.0228 41.3132 18.8224ZM40.7352 18.8224C40.7352 19.3022 40.347 19.6911 39.8682 19.6911C39.3893 19.6911 39.0011 19.3022 39.0011 18.8224C39.0011 18.3426 39.3893 17.9537 39.8682 17.9537C40.347 17.9537 40.7352 18.3426 40.7352 18.8224Z" fill="currentColor"/>
<path fill-rule="evenodd" clip-rule="evenodd" d="M123.104 64.8649C123.902 64.8649 124.549 64.2167 124.549 63.417C124.549 62.6174 123.902 61.9691 123.104 61.9691C122.306 61.9691 121.659 62.6174 121.659 63.417C121.659 64.2167 122.306 64.8649 123.104 64.8649ZM123.104 64.2857C123.583 64.2857 123.971 63.8968 123.971 63.417C123.971 62.9372 123.583 62.5483 123.104 62.5483C122.625 62.5483 122.237 62.9372 122.237 63.417C122.237 63.8968 122.625 64.2857 123.104 64.2857Z" fill="currentColor"/>
<path fill-rule="evenodd" clip-rule="evenodd" d="M59.232 65.1545C59.232 65.9541 58.5851 66.6023 57.787 66.6023C56.9889 66.6023 56.3419 65.9541 56.3419 65.1545C56.3419 64.3548 56.9889 63.7066 57.787 63.7066C58.5851 63.7066 59.232 64.3548 59.232 65.1545ZM58.654 65.1545C58.654 65.6342 58.2658 66.0232 57.787 66.0232C57.3081 66.0232 56.9199 65.6342 56.9199 65.1545C56.9199 64.6747 57.3081 64.2857 57.787 64.2857C58.2658 64.2857 58.654 64.6747 58.654 65.1545Z" fill="currentColor"/>
<path fill-rule="evenodd" clip-rule="evenodd" d="M172.814 128.571C173.612 128.571 174.259 127.923 174.259 127.124C174.259 126.324 173.612 125.676 172.814 125.676C172.016 125.676 171.369 126.324 171.369 127.124C171.369 127.923 172.016 128.571 172.814 128.571ZM172.814 127.992C173.293 127.992 173.681 127.603 173.681 127.124C173.681 126.644 173.293 126.255 172.814 126.255C172.335 126.255 171.947 126.644 171.947 127.124C171.947 127.603 172.335 127.992 172.814 127.992Z" fill="currentColor"/>
<path fill-rule="evenodd" clip-rule="evenodd" d="M170.791 25.1931C170.791 25.9927 170.144 26.6409 169.346 26.6409C168.548 26.6409 167.901 25.9927 167.901 25.1931C167.901 24.3934 168.548 23.7452 169.346 23.7452C170.144 23.7452 170.791 24.3934 170.791 25.1931ZM170.213 25.1931C170.213 25.6728 169.825 26.0618 169.346 26.0618C168.867 26.0618 168.479 25.6728 168.479 25.1931C168.479 24.7133 168.867 24.3243 169.346 24.3243C169.825 24.3243 170.213 24.7133 170.213 25.1931Z" fill="currentColor"/>
<path fill-rule="evenodd" clip-rule="evenodd" d="M20.2153 90.9267C21.0134 90.9267 21.6604 90.2784 21.6604 89.4788C21.6604 88.6792 21.0134 88.0309 20.2153 88.0309C19.4172 88.0309 18.7702 88.6792 18.7702 89.4788C18.7702 90.2784 19.4172 90.9267 20.2153 90.9267ZM20.2153 90.3475C20.6942 90.3475 21.0823 89.9586 21.0823 89.4788C21.0823 88.999 20.6942 88.6101 20.2153 88.6101C19.7365 88.6101 19.3483 88.999 19.3483 89.4788C19.3483 89.9586 19.7365 90.3475 20.2153 90.3475Z" fill="currentColor"/>
<path d="M113.823 16.7989L114.513 14.4018C114.557 14.2482 114.717 14.1595 114.871 14.2038C115.024 14.2481 115.113 14.4086 115.068 14.5623L114.379 16.9593C114.086 17.9781 113.203 18.7154 112.15 18.8211C111.332 18.9031 110.647 19.4758 110.419 20.267L109.73 22.664C109.685 22.8177 109.525 22.9064 109.372 22.8621C109.219 22.8178 109.13 22.6573 109.174 22.5036L109.864 20.1066C110.157 19.0878 111.04 18.3505 112.093 18.2448C112.91 18.1627 113.596 17.5901 113.823 16.7989Z" fill="currentColor"/>
<path d="M45.3246 87.4813L44.6358 89.5941C44.3355 90.5153 44.6572 91.5257 45.4344 92.1024C46.4116 92.8275 46.816 94.0978 46.4385 95.2559L45.7497 97.3687C45.7001 97.5207 45.537 97.6037 45.3852 97.5541C45.2335 97.5044 45.1507 97.3409 45.2002 97.1889L45.889 95.0761C46.1893 94.1549 45.8676 93.1446 45.0904 92.5678C44.1132 91.8427 43.7088 90.5724 44.0864 89.4143L44.7751 87.3015C44.8247 87.1495 44.9879 87.0665 45.1396 87.1162C45.2913 87.1658 45.3742 87.3293 45.3246 87.4813Z" fill="currentColor"/>
<path d="M168.068 51.5248L169.701 50.02C169.818 49.9117 169.826 49.7286 169.718 49.6109C169.61 49.4932 169.427 49.4855 169.309 49.5938L167.677 51.0986C166.782 51.9235 166.514 53.2296 167.012 54.341C167.408 55.2251 167.195 56.264 166.484 56.9201L164.851 58.4249C164.734 58.5331 164.726 58.7163 164.834 58.834C164.942 58.9517 165.125 58.9594 165.242 58.8511L166.875 57.3463C167.77 56.5214 168.038 55.2153 167.539 54.1038C167.143 53.2198 167.356 52.1809 168.068 51.5248Z" fill="currentColor"/>
<path d="M0.403463 99.9426L2.44066 100.822C3.32889 101.206 4.36239 100.977 5.0064 100.254C5.81607 99.3447 7.11543 99.0568 8.23214 99.539L10.2693 100.419C10.4159 100.482 10.4835 100.652 10.4204 100.799C10.3572 100.946 10.1872 101.014 10.0406 100.95L8.00339 100.071C7.11516 99.6873 6.08166 99.9163 5.43765 100.639C4.62798 101.548 3.32862 101.836 2.21191 101.354L0.17471 100.474C0.028124 100.411 -0.0394993 100.241 0.0236693 100.094C0.0868379 99.947 0.256878 99.8793 0.403463 99.9426Z" fill="currentColor"/>
<path d="M20.6221 48.9691C19.8418 49.0776 19.1889 48.3805 19.3465 47.6072L19.5201 46.7551C19.552 46.5984 19.4511 46.4455 19.2947 46.4135C19.1383 46.3815 18.9857 46.4826 18.9537 46.6393L18.7801 47.4914C18.5428 48.6562 19.5263 49.7062 20.7016 49.5427L20.7629 49.5342C21.5407 49.426 22.178 50.1454 21.9785 50.9063C21.6742 52.067 22.6463 53.1643 23.8326 52.9993C24.6104 52.8911 25.2477 53.6105 25.0482 54.3714C24.7439 55.5321 25.716 56.6293 26.9023 56.4643C27.6801 56.3562 28.3174 57.0756 28.1179 57.8365C27.8137 58.9971 28.7857 60.0944 29.972 59.9294C30.7498 59.8212 31.3871 60.5406 31.1876 61.3016C30.8834 62.4622 31.8555 63.5595 33.0418 63.3945L33.1031 63.386C33.8834 63.2774 34.5363 63.9745 34.3787 64.7478L34.2051 65.5999C34.1732 65.7566 34.2741 65.9095 34.4305 65.9415C34.5869 65.9735 34.7395 65.8724 34.7715 65.7157L34.9451 64.8636C35.1824 63.6988 34.1989 62.6489 33.0236 62.8123L32.9623 62.8209C32.1845 62.929 31.5472 62.2096 31.7467 61.4487C32.051 60.2881 31.0789 59.1908 29.8926 59.3558C29.1148 59.4639 28.4775 58.7446 28.677 57.9836C28.9812 56.823 28.0092 55.7257 26.8229 55.8907C26.0451 55.9989 25.4078 55.2795 25.6073 54.5185C25.9115 53.3579 24.9395 52.2606 23.7532 52.4256C22.9754 52.5338 22.3381 51.8144 22.5376 51.0535C22.8418 49.8928 21.8697 48.7955 20.6834 48.9605L20.6221 48.9691Z" fill="currentColor"/>
<path d="M151.479 7.59731C150.716 7.79156 150.374 8.68382 150.811 9.34053L150.845 9.39217C151.509 10.3907 150.946 11.745 149.771 11.9754C149 12.1264 148.631 13.0143 149.066 13.6689C149.731 14.6674 149.167 16.0217 147.992 16.2521C147.221 16.4031 146.852 17.291 147.288 17.9457C147.952 18.9442 147.389 20.2985 146.213 20.5288C145.443 20.6799 145.073 21.5678 145.509 22.2224C146.173 23.2209 145.61 24.5752 144.434 24.8056C143.664 24.9566 143.295 25.8445 143.73 26.4991L143.764 26.5508C144.423 27.54 143.907 28.884 142.757 29.1766L141.916 29.3906C141.761 29.43 141.604 29.3362 141.564 29.1812C141.525 29.0262 141.619 28.8687 141.773 28.8293L142.615 28.6153C143.378 28.421 143.72 27.5287 143.284 26.872L143.249 26.8204C142.585 25.8219 143.148 24.4676 144.324 24.2372C145.094 24.0862 145.463 23.1983 145.028 22.5436C144.364 21.5452 144.927 20.1908 146.102 19.9605C146.873 19.8094 147.242 18.9215 146.807 18.2669C146.142 17.2684 146.705 15.9141 147.881 15.6837C148.652 15.5327 149.021 14.6448 148.585 13.9902C147.921 12.9917 148.484 11.6373 149.66 11.407C150.43 11.2559 150.799 10.368 150.364 9.71341L150.33 9.66176C149.671 8.67257 150.187 7.32857 151.337 7.03597L152.178 6.82193C152.333 6.78257 152.49 6.87632 152.53 7.03133C152.569 7.18633 152.475 7.3439 152.321 7.38326L151.479 7.59731Z" fill="currentColor"/>
<path d="M187.193 71.1009C187.26 70.3145 188.083 69.8311 188.801 70.1563L189.592 70.5147C189.737 70.5806 189.908 70.5159 189.974 70.3702C190.04 70.2245 189.975 70.0529 189.83 69.987L189.039 69.6286C187.958 69.1387 186.718 69.867 186.617 71.0515L186.612 71.1133C186.545 71.8972 185.703 72.3605 185.007 71.997C183.945 71.4426 182.661 72.1493 182.559 73.3449C182.492 74.1288 181.651 74.5921 180.955 74.2286C179.892 73.6742 178.609 74.3809 178.507 75.5765C178.44 76.3604 177.598 76.8237 176.902 76.4602C175.84 75.9058 174.557 76.6125 174.454 77.8081C174.387 78.592 173.546 79.0553 172.85 78.6918C171.787 78.1374 170.504 78.8441 170.402 80.0397L170.397 80.1015C170.329 80.8879 169.506 81.3714 168.789 81.0462L167.998 80.6878C167.852 80.6219 167.681 80.6866 167.615 80.8323C167.549 80.978 167.614 81.1496 167.759 81.2155L168.55 81.5738C169.631 82.0638 170.871 81.3355 170.972 80.151L170.978 80.0891C171.045 79.3053 171.886 78.842 172.582 79.2054C173.645 79.7598 174.928 79.0532 175.03 77.8575C175.097 77.0737 175.939 76.6104 176.635 76.9738C177.697 77.5283 178.98 76.8216 179.083 75.6259C179.15 74.8421 179.991 74.3788 180.687 74.7422C181.75 75.2967 183.033 74.59 183.135 73.3944C183.202 72.6105 184.044 72.1472 184.74 72.5107C185.802 73.0651 187.085 72.3584 187.188 71.1628L187.193 71.1009Z" fill="currentColor"/>
<path d="M61.2715 8.20969C60.8942 8.90252 61.314 9.76096 62.0917 9.88684L62.1528 9.89674C63.3352 10.0881 63.9427 11.4231 63.3117 12.443C62.8979 13.1117 63.2962 13.9869 64.0714 14.1123C65.2538 14.3037 65.8613 15.6387 65.2303 16.6586C64.8165 17.3272 65.2148 18.2025 65.99 18.3279C67.1724 18.5193 67.7799 19.8543 67.1488 20.8742C66.7351 21.5428 67.1334 22.4181 67.9086 22.5435C69.091 22.7349 69.6985 24.0699 69.0674 25.0898C68.6537 25.7584 69.052 26.6336 69.8272 26.7591L69.8883 26.769C71.0597 26.9586 71.692 28.2517 71.1237 29.2953L70.708 30.0587C70.6316 30.1991 70.456 30.2508 70.3159 30.1742C70.1758 30.0976 70.1241 29.9217 70.2006 29.7813L70.6163 29.0179C70.9936 28.3251 70.5738 27.4666 69.7962 27.3408L69.735 27.3309C68.5527 27.1395 67.9451 25.8045 68.5762 24.7846C68.9899 24.1159 68.5916 23.2407 67.8164 23.1153C66.6341 22.9239 66.0265 21.5889 66.6576 20.569C67.0713 19.9003 66.673 19.0251 65.8978 18.8997C64.7155 18.7083 64.1079 17.3733 64.739 16.3534C65.1527 15.6847 64.7544 14.8095 63.9792 14.6841C62.7969 14.4927 62.1893 13.1577 62.8204 12.1378C63.2341 11.4692 62.8358 10.5939 62.0606 10.4685L61.9995 10.4586C60.8281 10.269 60.1958 8.97591 60.7641 7.9323L61.1798 7.16887C61.2563 7.02848 61.4318 6.97677 61.5719 7.05336C61.7121 7.12996 61.7637 7.30586 61.6872 7.44626L61.2715 8.20969Z" fill="currentColor"/>
<path d="M160.387 103.668C161.663 103.668 162.699 102.631 162.699 101.351C162.699 100.072 161.663 99.0348 160.387 99.0348C159.11 99.0348 158.074 100.072 158.074 101.351C158.074 102.631 159.11 103.668 160.387 103.668Z" fill="currentColor"/>
<path d="M19.3483 122.78C20.6252 122.78 21.6604 121.743 21.6604 120.463C21.6604 119.184 20.6252 118.147 19.3483 118.147C18.0713 118.147 17.0362 119.184 17.0362 120.463C17.0362 121.743 18.0713 122.78 19.3483 122.78Z" fill="currentColor"/>
<path fill-rule="evenodd" clip-rule="evenodd" d="M93.8566 47.1886C93.8942 46.9085 93.9136 46.6225 93.9136 46.3321C93.9136 42.8136 91.0669 39.9614 87.5553 39.9614C84.0437 39.9614 81.197 42.8136 81.197 46.3321C81.197 49.8505 84.0437 52.7027 87.5553 52.7027C88.325 52.7027 89.0628 52.5657 89.7457 52.3146C89.1876 53.6749 88.8799 55.1648 88.8799 56.7267C88.8799 63.1405 94.0692 68.3399 100.471 68.3399C106.538 68.3399 111.516 63.6689 112.019 57.7202C112.979 57.6825 113.741 57.1035 113.741 56.3949C113.741 55.6678 112.939 55.0772 111.944 55.0678C111.268 50.3349 107.744 46.5225 103.168 45.4296L103.167 45.4294C102.307 45.2241 101.41 45.1149 100.488 45.1135L100.471 45.1135C100.163 45.1135 99.8587 45.1255 99.5574 45.149C97.4484 45.3137 95.4978 46.044 93.8566 47.1886ZM97.7239 60.9006C96.4693 62.2706 95.0348 63.4724 93.4578 64.4685C95.3105 66.1543 97.7707 67.1816 100.471 67.1816C105.932 67.1816 110.415 62.9766 110.867 57.6224L110.954 56.6029L111.974 56.5628C112.237 56.5524 112.428 56.47 112.53 56.3949C112.421 56.3147 112.214 56.2287 111.933 56.226L110.94 56.2167L110.799 55.2318C110.207 51.0798 107.177 47.7146 103.21 46.6358C103.21 46.6814 103.21 46.7269 103.21 46.7725C103.21 50.2302 102.372 53.4919 100.889 56.3648C99.9328 55.2132 98.5292 54.738 97.4539 55.3024C96.1579 55.9827 95.8297 57.9159 96.7209 59.6203C96.9881 60.1314 97.3347 60.5639 97.7239 60.9006ZM112.595 56.4544C112.597 56.4587 112.598 56.4608 112.599 56.4607C112.599 56.4607 112.598 56.4601 112.598 56.4589L112.597 56.4579C112.597 56.457 112.596 56.4558 112.595 56.4544ZM112.597 56.3318L112.595 56.3349C112.598 56.3312 112.599 56.3293 112.599 56.3293C112.598 56.3292 112.598 56.3301 112.597 56.3318Z" fill="currentColor"/>
<path fill-rule="evenodd" clip-rule="evenodd" d="M55.4972 123.142C45.9374 118.465 37.1607 118.368 32.8816 123.837C28.4406 129.514 29.9982 139.71 36.0022 150H162.001C165.277 144.726 166.339 139.704 164.331 136.683C162.509 133.945 158.536 133.415 153.721 134.796C153.308 134.914 152.889 135.046 152.465 135.193C152.554 134.758 152.634 134.324 152.707 133.893C154.268 124.556 151.855 116.092 146.118 113.097C140.665 110.251 133.722 113.134 128.37 119.701C128.069 120.07 127.773 120.452 127.482 120.844C127.363 120.361 127.23 119.899 127.083 119.459C126.187 116.777 124.78 114.933 122.911 114.31C120.795 113.604 118.403 114.565 116.064 116.777C118.044 112.445 119.232 107.412 119.354 102.025C119.392 100.354 119.326 98.7131 119.164 97.1117C124.826 97.8737 132.302 95.0569 136.976 88.0309C140.947 82.0642 142.076 70.88 142.172 65.3376C142.18 64.8727 141.901 64.4574 141.474 64.2758L140.445 63.8382V61.3279C140.573 61.1639 140.681 60.9707 140.767 60.7966C140.913 60.5051 141.052 60.1594 141.171 59.8133C141.292 59.466 141.397 59.1067 141.472 58.7844C141.545 58.4741 141.601 58.1586 141.601 57.9151C141.601 56.5026 140.649 55.2703 139.707 54.4398C139.222 54.0128 138.707 53.6617 138.248 53.4143C138.019 53.2906 137.796 53.1889 137.591 53.1168C137.397 53.0481 137.18 52.9923 136.976 52.9923C136.963 52.9923 136.949 52.9925 136.934 52.993L136.675 51.8962C139.101 50.0959 140.734 46.7222 140.734 42.8572C140.734 37.0998 137.111 32.4324 132.641 32.4324C128.172 32.4324 124.549 37.0998 124.549 42.8572C124.549 48.6146 128.172 53.2819 132.641 53.2819C133.301 53.2819 133.943 53.18 134.557 52.9879L135.252 55.9285L135.123 56.0577C134.635 56.5463 133.863 57.8958 134.747 59.3714C135.11 59.9782 135.445 60.4196 135.724 60.7287C135.859 60.8783 135.989 61.0058 136.109 61.1078V61.9955L134.269 61.2132C133.501 60.8869 132.65 61.4563 132.633 62.2916C132.461 70.5304 130.393 81.1603 123.393 82.2394C117.075 83.2133 110.872 77.7254 108.351 75.4954C108.135 75.3043 107.946 75.1372 107.786 75L107.863 75.1745C104.712 72.8468 101.083 71.4852 97.1987 71.3967C85.002 71.1186 74.7521 83.4948 73.7464 99.3465C70.188 102.756 67.7328 108.613 66.9154 115.597C66.8568 116.097 66.8067 116.603 66.7651 117.115C66.4088 116.731 66.0551 116.366 65.7052 116.023C62.4958 112.878 59.5982 111.513 57.7867 112.681C55.9284 113.88 55.5776 117.508 56.5179 122.356C56.6105 122.833 56.7157 123.323 56.8331 123.822C56.3864 123.586 55.9409 123.359 55.4972 123.142ZM139.289 63.3468L137.265 62.4869V60.4529L136.946 60.2926C136.938 60.2879 136.809 60.2042 136.581 59.9518C136.36 59.7059 136.068 59.3268 135.738 58.7754C135.469 58.3267 135.464 57.8971 135.561 57.5508C135.575 57.5685 135.59 57.5859 135.605 57.6031C135.814 57.8491 136.181 58.2047 136.687 58.2047C137.083 58.2047 137.331 57.947 137.458 57.7498C137.586 57.5519 137.662 57.3157 137.712 57.1091C137.813 56.6873 137.843 56.2037 137.843 55.8881C137.843 55.2994 137.648 54.7309 137.497 54.3312C137.562 54.3618 137.63 54.3962 137.701 54.4345C138.081 54.6395 138.524 54.9399 138.943 55.3093C139.807 56.0714 140.445 57.011 140.445 57.9151C140.445 58.0191 140.416 58.2272 140.347 58.5189C140.281 58.7988 140.188 59.12 140.079 59.4339C139.97 59.7489 139.85 60.0451 139.733 60.2785C139.675 60.3953 139.622 60.4885 139.575 60.5573C139.535 60.6175 139.51 60.6431 139.505 60.6482L139.289 60.8221V63.3468ZM161.351 148.842C162.748 146.486 163.648 144.245 164.011 142.286C164.402 140.169 164.149 138.499 163.368 137.326C162.616 136.195 161.346 135.484 159.541 135.279C157.719 135.073 155.426 135.397 152.84 136.288C152.448 136.423 152.013 136.337 151.701 136.063C151.389 135.788 151.249 135.367 151.332 134.959C152.312 130.185 152.217 125.634 151.186 121.941C150.154 118.242 148.217 115.499 145.584 114.124C143.075 112.815 140.151 112.859 137.138 114.146C134.113 115.439 131.046 117.974 128.411 121.534C128.144 121.894 127.694 122.068 127.255 121.98C126.816 121.892 126.467 121.558 126.36 121.122C125.541 117.802 124.138 115.94 122.546 115.409C121.536 115.072 120.348 115.226 118.982 116.003C117.607 116.786 116.136 118.16 114.684 120.081C114.395 120.464 113.9 120.628 113.44 120.494C112.98 120.359 112.65 119.955 112.611 119.476C112.39 116.784 111.848 114.539 111.054 112.885C110.257 111.226 109.266 110.273 108.194 109.915C107.07 109.541 105.716 109.774 104.152 110.804C102.583 111.836 100.926 113.597 99.337 115.996C99.0867 116.374 98.6395 116.571 98.1925 116.499C97.7456 116.428 97.3811 116.102 97.26 115.666C95.6119 109.721 92.926 104.818 89.7833 101.579C86.6369 98.3361 83.1451 96.8577 79.7899 97.4121C76.734 97.9171 74.0016 100.069 71.8898 103.566C69.7802 107.059 68.3569 111.798 67.9173 117.209C67.8802 117.666 67.5767 118.059 67.1437 118.209C66.7107 118.36 66.23 118.24 65.9181 117.903C64.1516 115.998 62.5169 114.674 61.1478 113.98C59.7503 113.27 58.9035 113.339 58.4124 113.655C57.8612 114.011 57.3448 114.924 57.2058 116.743C57.0713 118.504 57.3181 120.832 57.9584 123.557C58.0623 123.999 57.8986 124.461 57.5399 124.739C57.1811 125.017 56.6935 125.059 56.2927 124.846C51.3645 122.235 46.6786 120.883 42.7474 120.841C38.8323 120.799 35.7506 122.048 33.7914 124.552C31.8278 127.062 31.1103 130.678 31.6716 135.041C32.2104 139.228 33.9181 143.991 36.6701 148.842H161.351ZM132.641 50.9653C135.327 50.9653 138.422 47.9107 138.422 42.8572C138.422 37.8036 135.327 34.749 132.641 34.749C129.956 34.749 126.861 37.8036 126.861 42.8572C126.861 47.9107 129.956 50.9653 132.641 50.9653Z" fill="currentColor"/>
</svg>
