<svg width="35" height="37" viewBox="0 0 35 37" fill="none" xmlns="http://www.w3.org/2000/svg">
<path d="M16.0467 0C6.22264 0 0 7.18209 0 15.6538C0 19.9787 1.66393 22.8137 3.1683 25.015C4.66128 27.2052 5.83515 28.695 5.83515 30.9519V37H8.75272V30.9519C8.75272 27.7055 7.00901 25.5264 5.58442 23.4363C4.17122 21.3462 2.91757 19.3005 2.91757 15.6538C2.91757 9.85036 6.04029 5.11418 11.6703 3.49099V12.1851C9.93798 13.1746 8.75272 14.9868 8.75272 17.0769C8.75272 20.201 11.3854 22.7692 14.5879 22.7692C15.6592 22.7692 16.6621 22.4579 17.5282 21.9576L20.5256 24.8816C20.4572 25.1262 20.423 25.3708 20.423 25.6154C20.423 27.183 21.7336 28.4615 23.3406 28.4615C24.9475 28.4615 26.2582 27.183 26.2582 25.6154C26.2582 24.0478 24.9475 22.7692 23.3406 22.7692C23.0899 22.7692 22.8391 22.8026 22.5884 22.8693L19.591 19.9453C20.1039 19.1004 20.423 18.122 20.423 17.0769C20.423 13.9528 17.7904 11.3846 14.5879 11.3846V2.96845C15.0779 2.92398 15.5338 2.84615 16.0467 2.84615C20.4116 2.84615 23.2494 4.16917 25.2097 6.13702C27.1813 8.10487 28.2754 10.8065 28.6971 13.6304C28.7654 14.1196 28.925 14.5977 29.1757 15.0535L32.0591 20.101C32.1503 20.2455 32.1047 20.3567 31.9451 20.4234L29.1757 21.424V27.0385C29.1757 29.4065 28.1728 30.207 27.0673 30.7407C25.9618 31.2855 24.7994 31.3077 24.7994 31.3077H23.3406V37H26.2582V33.7981C26.942 33.7202 27.2953 33.8092 28.3666 33.2978C30.1786 32.4084 32.0933 30.3627 32.0933 27.0385V23.4029L33.0506 23.0583L33.0734 23.0472C34.7829 22.3468 35.5123 20.3011 34.612 18.7224L31.7286 13.6749C31.6602 13.5526 31.6032 13.4081 31.5804 13.2302C31.0904 9.96154 29.8253 6.65956 27.3067 4.14693C24.788 1.63432 21.0384 0 16.0467 0ZM14.5879 14.2308C16.2176 14.2308 17.5054 15.4871 17.5054 17.0769C17.5054 18.6668 16.2176 19.9231 14.5879 19.9231C12.9581 19.9231 11.6703 18.6668 11.6703 17.0769C11.6703 15.4871 12.9581 14.2308 14.5879 14.2308Z" fill="white"/>
</svg>
