<svg width="12" height="16" viewBox="0 0 12 16" fill="none" xmlns="http://www.w3.org/2000/svg">
<path fill-rule="evenodd" clip-rule="evenodd" d="M9.8259 15.36C8.66906 15.36 6.1604 11.776 6.1604 11.776L2.49504 15.36C1.33819 15.36 0.400391 14.443 0.400391 13.312V2.048C0.400391 0.916944 1.33819 0 2.49504 0H9.8259C10.9827 0 11.9205 0.916944 11.9205 2.048V13.312C11.9205 14.443 10.9827 15.36 9.8259 15.36ZM10.8732 2.048C10.8732 1.4824 10.4043 1.02393 9.8259 1.02393H2.49504C1.91656 1.02393 1.44771 1.4824 1.44771 2.048V13.312C1.44771 13.8774 1.91656 14.3359 2.49504 14.3359L6.1604 10.7519L9.8259 14.3359C10.4043 14.3359 10.8732 13.8774 10.8732 13.312V2.048Z" fill="currentColor"/>
</svg>
