<svg width="22" height="20" viewBox="0 0 22 20" fill="none" xmlns="http://www.w3.org/2000/svg">
<path d="M11 2.35015C11.075 2.50015 11.15 2.65015 11.225 2.80015L11.6 3.62515L11.975 4.37515C12.35 5.12515 12.725 5.80015 13.025 6.55015C13.175 6.85015 13.625 7.45015 14.45 7.60015C15.575 7.75015 16.775 7.90015 17.9 8.12515L19.1 8.27515L18.65 8.72515C17.675 9.62515 16.7 10.6001 15.725 11.5001C15.275 11.9501 15.05 12.5501 15.2 13.2251C15.5 14.7251 15.725 16.3001 16.025 17.8001L15.125 17.3501C14 16.7501 12.95 16.2251 11.825 15.6251C11.525 15.4751 11.225 15.4001 10.925 15.4001C10.625 15.4001 10.325 15.4751 10.025 15.6251C8.675 16.3751 7.25 17.0501 5.825 17.8001L5.9 17.5751C6.125 16.1501 6.425 14.6501 6.65 13.2251C6.725 12.5501 6.575 11.9501 6.05 11.5001C5.3 10.7501 4.4 9.85015 3.5 9.02515L2.825 8.35015C3.35 8.27515 3.95 8.20015 4.475 8.12515L5.15 8.05015L5.825 7.97515C6.425 7.90015 6.95 7.82515 7.55 7.75015C8.225 7.67515 8.675 7.15015 8.9 6.77515C9.575 5.20015 10.325 3.77515 11 2.35015ZM11 0.0251465C10.7 0.0251465 10.4 0.175146 10.25 0.475146C10.25 0.550146 10.175 0.625146 10.175 0.625146C9.275 2.42515 8.45 4.15015 7.55 5.95015C7.475 6.02515 7.4 6.10015 7.325 6.17515C6.5 6.25015 5.75 6.40015 4.925 6.47515C3.65 6.62515 2.45 6.85015 1.175 7.00015C0.725 7.07515 0.5 7.45015 0.5 7.90015C0.5 8.12515 0.65 8.35015 0.8 8.50015C2.225 9.92515 3.65 11.2751 5.075 12.7001C5.225 12.7751 5.225 12.9251 5.225 13.0751C4.925 14.6501 4.7 16.2251 4.4 17.8751C4.325 18.2501 4.25 18.7001 4.175 19.1501C4.175 19.2251 4.175 19.3001 4.175 19.3751C4.25 19.7501 4.55 19.9751 4.925 19.9751C5.075 19.9751 5.225 19.9751 5.375 19.8251C7.175 18.9251 8.975 17.9501 10.775 16.9751C10.85 16.9001 10.925 16.9001 11 16.9001C11.075 16.9001 11.15 16.9001 11.225 16.9751C13.025 17.9501 14.825 18.8501 16.625 19.8251C16.775 19.9001 16.925 19.9751 17.075 19.9751C17.225 19.9751 17.375 19.9001 17.525 19.8251C17.825 19.6001 17.9 19.3751 17.825 19.0001C17.45 16.9751 17.15 15.0251 16.775 13.0001C16.775 12.8501 16.775 12.7001 16.925 12.6251C18.35 11.2001 19.85 9.85015 21.275 8.42515C21.5 8.20015 21.65 7.90015 21.5 7.60015C21.425 7.30015 21.125 7.07515 20.825 7.07515C18.8 6.77515 16.775 6.47515 14.825 6.17515C14.675 6.17515 14.6 6.10015 14.525 5.95015C14.075 4.97515 13.55 4.00015 13.1 3.02515C12.65 2.20015 12.275 1.30015 11.825 0.475146C11.6 0.175146 11.3 0.0251465 11 0.0251465Z" fill="currentColor"/>
</svg>
