<svg width="24" height="24" viewBox="0 0 24 24" fill="none" xmlns="http://www.w3.org/2000/svg">
<path d="M16.5753 18.975C15.9453 20.145 15.1503 20.835 14.2878 20.835C12.2103 20.835 10.5303 16.7925 10.5303 11.8125C10.5303 6.83254 12.2103 2.79004 14.2878 2.79004C15.1128 2.79004 15.8778 3.43504 16.5003 4.52254" stroke="currentColor" stroke-width="1.5" stroke-miterlimit="10" stroke-linecap="round" stroke-linejoin="round"/>
<path d="M14.2875 2.79004C13.59 2.79004 12.915 3.00004 12.3375 3.39754L6.465 8.58004L1.5 9.40504V14.22L6.465 15.045L12.1425 20.205C12.72 20.61 13.41 20.835 14.1225 20.835H14.2875" stroke="currentColor" stroke-width="1.5" stroke-miterlimit="10" stroke-linecap="round" stroke-linejoin="round"/>
<path d="M4.80762 15.4199V21.2099" stroke="currentColor" stroke-width="1.5" stroke-miterlimit="10" stroke-linecap="round" stroke-linejoin="round"/>
<path d="M18.1426 8.52002C19.9576 10.335 19.9576 13.2825 18.1426 15.105" stroke="currentColor" stroke-width="1.5" stroke-miterlimit="10" stroke-linecap="round" stroke-linejoin="round"/>
<path d="M20.1675 6.49512C23.1075 9.43512 23.1075 14.1976 20.1675 17.1301" stroke="currentColor" stroke-width="1.5" stroke-miterlimit="10" stroke-linecap="round" stroke-linejoin="round"/>
</svg>
