<svg width="19" height="19" viewBox="0 0 19 19" fill="none" xmlns="http://www.w3.org/2000/svg">
<path d="M10.0744 17.6946L1.52352 9.08554C1.17451 8.73653 1 8.32934 1 7.80582V3.44311C1 2.80325 1.23268 2.16339 1.69803 1.69803C2.16339 1.23268 2.74508 1 3.44311 1H7.86399C8.32934 1 8.7947 1.17451 9.14371 1.52352L17.6946 10.0744C18.1018 10.4816 18.1018 11.1215 17.6946 11.5287L11.5287 17.6946C11.1215 18.1018 10.4816 18.1018 10.0744 17.6946Z" stroke="currentColor" stroke-width="1.5" stroke-miterlimit="10" stroke-linecap="round" stroke-linejoin="round"/>
<path d="M5.13086 6.46778C5.86976 6.46778 6.46876 5.86879 6.46876 5.12989C6.46876 4.39099 5.86976 3.79199 5.13086 3.79199C4.39197 3.79199 3.79297 4.39099 3.79297 5.12989C3.79297 5.86879 4.39197 6.46778 5.13086 6.46778Z" stroke="currentColor" stroke-width="1.5" stroke-miterlimit="10" stroke-linecap="round" stroke-linejoin="round"/>
</svg>
