<svg width="19" height="21" viewBox="0 0 19 21" fill="none" xmlns="http://www.w3.org/2000/svg">
<path d="M16.8889 0H8.44444C7.88454 0 7.34757 0.221249 6.95166 0.615076C6.55575 1.0089 6.33333 1.54305 6.33333 2.1V8.4H2.11111C0.946833 8.4 0 9.34185 0 10.5V19.95C0 20.2285 0.11121 20.4955 0.309165 20.6925C0.50712 20.8894 0.775605 21 1.05556 21H17.9444C18.2244 21 18.4929 20.8894 18.6908 20.6925C18.8888 20.4955 19 20.2285 19 19.95V2.1C19 1.54305 18.7776 1.0089 18.3817 0.615076C17.9858 0.221249 17.4488 0 16.8889 0ZM2.11111 18.9V10.5H8.44444V18.9H2.11111ZM11.6111 6.3H9.5V4.2H11.6111V6.3ZM15.8333 14.7H13.7222V12.6H15.8333V14.7ZM15.8333 10.5H13.7222V8.4H15.8333V10.5ZM15.8333 6.3H13.7222V4.2H15.8333V6.3Z" fill="currentColor"/>
</svg>
