<svg width="100%" height="100%" viewBox="0 0 32 32" fill="none" xmlns="http://www.w3.org/2000/svg">
<path d="M12.7084 25.6485V22.2751C12.7083 21.4171 13.4447 20.7199 14.357 20.7142H17.6987C18.6154 20.7142 19.3585 21.413 19.3585 22.2751V25.659C19.3583 26.3875 19.9765 26.9829 20.7509 27H22.9787C25.1996 27 27 25.3067 27 23.218V13.6216C26.9881 12.7999 26.5779 12.0283 25.8861 11.5263L18.2668 5.75383C16.932 4.74872 15.0346 4.74872 13.6997 5.75383L6.11392 11.5368C5.41946 12.0367 5.00855 12.8096 5 13.6321V23.218C5 25.3067 6.80038 27 9.02127 27H11.2491C12.0427 27 12.6861 26.3949 12.6861 25.6485" stroke="currentColor" stroke-width="2" stroke-linecap="round" stroke-linejoin="round"/>
</svg>
