<svg width="25" height="26" viewBox="0 0 25 26" stroke="currentColor" fill="none" xmlns="http://www.w3.org/2000/svg">
    <path d="M8.88354 23.5257V19.8456C8.88352 18.9096 9.63659 18.149 10.5696 18.1427H13.9873C14.9248 18.1427 15.6848 18.9051 15.6848 19.8456V23.5371C15.6846 24.3318 16.3169 24.9814 17.1089 25H19.3873C21.6587 25 23.5 23.1528 23.5 20.8742V10.4054C23.4879 9.50899 23.0683 8.66722 22.3608 8.11964L14.5684 1.82236C13.2032 0.725879 11.2626 0.725879 9.89747 1.82236L2.13924 8.13107C1.42899 8.67643 1.00875 9.5196 1 10.4168V20.8742C1 23.1528 2.8413 25 5.11266 25H7.39114C8.20279 25 8.86076 24.3399 8.86076 23.5257"
          stroke-width="2" stroke-linecap="round" stroke-linejoin="round"/>
</svg>
