<svg width="30" height="24" viewBox="0 0 30 24" fill="none" xmlns="http://www.w3.org/2000/svg">
<path d="M3.00004 12C1.53337 12 0.333374 10.8 0.333374 9.33333V2.66667C0.333374 1.2 1.53337 0 3.00004 0H13.6667C15.1334 0 16.3334 1.2 16.3334 2.66667V9.33333C16.3334 10.8 15.1334 12 13.6667 12H11V16L7.00004 12H3.00004ZM27 20C28.4667 20 29.6667 18.8 29.6667 17.3333V10.6667C29.6667 9.2 28.4667 8 27 8H19V9.33333C19 12.2667 16.6 14.6667 13.6667 14.6667V17.3333C13.6667 18.8 14.8667 20 16.3334 20H19V24L23 20H27Z" fill="currentColor"/>
</svg>
