<svg width="20" height="23" viewBox="0 0 20 23" fill="none" xmlns="http://www.w3.org/2000/svg">
<path d="M5.6311 22.9971C4.09643 19.8073 4.91415 17.9803 6.09323 16.2581C7.38461 14.3721 7.71861 12.5062 7.71861 12.5062C7.71861 12.5062 8.73501 13.8244 8.32758 15.8872C10.1214 13.8934 10.4612 10.7151 10.1891 9.49756C14.2446 12.328 15.9779 18.4561 13.6428 22.9986C26.0685 15.9792 16.7337 5.47544 15.1084 4.29237C15.6497 5.47544 15.7533 7.47788 14.6578 8.45106C12.8049 1.4375 8.22537 0 8.22537 0C8.76668 3.61675 6.26167 7.57275 3.84593 10.5283C3.76099 9.08644 3.67029 8.09025 2.91159 6.71025C2.74171 9.33081 0.736267 11.4669 0.192076 14.0918C-0.543589 17.6468 0.743465 20.2501 5.62966 23L5.6311 22.9971Z" fill="currentColor"/>
</svg>
