<svg width="27" height="27" viewBox="0 0 27 27" fill="none" stroke="currentColor" xmlns="http://www.w3.org/2000/svg">
    <path d="M6.58125 18.3941V11.4754C6.58125 7.67852 9.70312 4.55664 13.5 4.55664C17.2969 4.55664 20.4188 7.67852 20.4188 11.4754V18.3941L23.2031 21.1785H3.79688L6.58125 18.3941Z"
           stroke-width="2" stroke-miterlimit="10" stroke-linecap="round" stroke-linejoin="round"/>
    <path d="M6.58203 18.3945H13.5008"  stroke-width="2" stroke-miterlimit="10" stroke-linecap="round"
          stroke-linejoin="round"/>
    <path d="M13.5 7.25586C15.7781 7.25586 17.6344 9.11211 17.6344 11.3902"  stroke-width="2"
          stroke-miterlimit="10" stroke-linecap="round" stroke-linejoin="round"/>
    <path d="M10.2109 23.709C10.9703 24.7215 12.1516 25.3121 13.5016 25.3121C14.8516 25.3121 16.0328 24.7215 16.7922 23.709"
           stroke-width="2" stroke-miterlimit="10" stroke-linecap="round" stroke-linejoin="round"/>
    <path d="M13.4984 4.3875C14.244 4.3875 14.8484 3.78308 14.8484 3.0375C14.8484 2.29192 14.244 1.6875 13.4984 1.6875C12.7529 1.6875 12.1484 2.29192 12.1484 3.0375C12.1484 3.78308 12.7529 4.3875 13.4984 4.3875Z"
           stroke-width="2" stroke-miterlimit="10" stroke-linecap="round" stroke-linejoin="round"/>
</svg>
