<svg width="100%" height="100%" viewBox="0 0 32 32" fill="none" xmlns="http://www.w3.org/2000/svg">
<path d="M19 13C19 14.6569 17.6569 16 16 16C14.3431 16 13 14.6569 13 13C13 11.3431 14.3431 10 16 10C17.6569 10 19 11.3431 19 13Z" stroke="currentColor" stroke-width="2"/>
<path d="M22 23.3956C21.9802 24.0369 21.5186 24.6778 20.3583 25.2051C19.2135 25.7253 17.6246 26.0056 15.9796 25.9999C14.3347 25.9943 12.7484 25.7031 11.6097 25.1798C10.4468 24.6455 10.0084 24.0112 10 23.4026C10.0018 21.9664 10.6763 20.905 11.7531 20.1664C12.8621 19.4058 14.4012 18.9959 15.9974 19C17.5934 19.0042 19.1346 19.4222 20.2459 20.1864C21.3249 20.9283 21.996 21.9844 22 23.3956Z" stroke="currentColor" stroke-width="2"/>
<circle cx="16" cy="16" r="10.9167" stroke="currentColor" stroke-width="2.16667"/>
</svg>
