<svg width="21" height="23" viewBox="0 0 21 23" fill="none" xmlns="http://www.w3.org/2000/svg">
<path d="M2.70588 0C1.98824 0 1.29999 0.285083 0.792534 0.792534C0.285083 1.29999 0 1.98824 0 2.70588V18.9412C0 19.6588 0.285083 20.3471 0.792534 20.8545C1.29999 21.362 1.98824 21.6471 2.70588 21.6471H8.46535C8.12077 21.2297 7.82271 20.7761 7.57647 20.2941H2.70588C2.34706 20.2941 2.00293 20.1516 1.74921 19.8979C1.49548 19.6441 1.35294 19.3 1.35294 18.9412H7.04476C6.68292 17.6666 6.66794 16.3186 7.00135 15.0363C7.33477 13.7541 8.0045 12.5841 8.94135 11.6472C9.8782 10.7104 11.0482 10.0407 12.3305 9.70724C13.6127 9.37382 14.9608 9.38881 16.2353 9.75065V2.70588C16.2353 1.98824 15.9502 1.29999 15.4428 0.792534C14.9353 0.285083 14.2471 0 13.5294 0H2.70588ZM3.72059 3.38235H12.5147C12.7838 3.38235 13.0419 3.48926 13.2322 3.67955C13.4225 3.86985 13.5294 4.12794 13.5294 4.39706C13.5294 4.66618 13.4225 4.92427 13.2322 5.11456C13.0419 5.30486 12.7838 5.41176 12.5147 5.41176H3.72059C3.45147 5.41176 3.19338 5.30486 3.00308 5.11456C2.81279 4.92427 2.70588 4.66618 2.70588 4.39706C2.70588 4.12794 2.81279 3.86985 3.00308 3.67955C3.19338 3.48926 3.45147 3.38235 3.72059 3.38235Z" fill="currentColor"/>
<path d="M20.2941 16.9117C20.2941 18.5264 19.6527 20.075 18.5109 21.2168C17.3692 22.3585 15.8206 23 14.2059 23C12.5912 23 11.0426 22.3585 9.90088 21.2168C8.75911 20.075 8.11768 18.5264 8.11768 16.9117C8.11768 15.297 8.75911 13.7485 9.90088 12.6067C11.0426 11.4649 12.5912 10.8235 14.2059 10.8235C15.8206 10.8235 17.3692 11.4649 18.5109 12.6067C19.6527 13.7485 20.2941 15.297 20.2941 16.9117ZM13.5565 14.2518C13.4688 14.1916 13.3668 14.1553 13.2608 14.1465C13.1547 14.1377 13.0482 14.1568 12.9517 14.2018C12.873 14.2364 12.8018 14.2861 12.742 14.3479C12.616 14.477 12.5456 14.6504 12.5459 14.8309V18.9912C12.545 19.0809 12.5619 19.1698 12.5956 19.2529C12.6293 19.3361 12.679 19.4117 12.742 19.4755C12.8038 19.537 12.8756 19.5873 12.9544 19.6244C13.0917 19.6873 13.2475 19.6969 13.3914 19.6514C13.4538 19.6309 13.513 19.6017 13.5673 19.5648L16.6737 17.4448C16.7682 17.3825 16.8443 17.2961 16.8942 17.1945C16.9456 17.0921 16.972 16.9791 16.9713 16.8646C16.9706 16.75 16.9428 16.6373 16.8901 16.5356C16.8372 16.4355 16.7594 16.3507 16.6642 16.2894L13.5565 14.2518Z" fill="currentColor"/>
</svg>
