<svg width="370" height="249" viewBox="0 0 370 249" fill="none" xmlns="http://www.w3.org/2000/svg">
<path d="M12.2926 231.834L13.1429 231.233C13.8555 230.723 14.529 230.244 15.0664 229.906C16.0783 229.264 17.2654 228.6 18.3862 228.536C18.4437 228.533 18.5007 228.524 18.5562 228.509C18.5562 228.474 18.5664 228.423 18.5716 228.383C18.5723 228.196 18.6171 228.011 18.7022 227.845C18.7873 227.679 18.9103 227.534 19.0614 227.424C19.1649 227.345 19.2868 227.293 19.4158 227.273C19.5448 227.253 19.6768 227.266 19.7995 227.31C20.5478 227.578 21.0308 229.031 21.2518 229.873C21.3981 230.427 21.9678 231.097 22.5784 231.434C22.9423 231.635 23.2876 231.7 23.5478 231.618C24.2179 231.405 24.4849 231.051 24.8862 230.515C25.0325 230.321 25.1958 230.103 25.3964 229.873C25.8893 229.322 26.5506 228.949 27.2774 228.813C27.2774 228.384 27.2621 227.7 27.2213 226.536C27.1703 225.115 28.8335 224.674 29.9322 224.383C30.2157 224.32 30.4929 224.231 30.7604 224.117C30.7039 223.964 30.6291 223.818 30.5376 223.682C30.3421 223.358 30.0989 222.957 30.0802 222.479C30.0786 222.005 30.1586 221.535 30.3166 221.088C30.5342 220.363 30.5853 220.096 30.1176 219.752C28.7859 218.772 28.5869 217.133 29.621 215.667C29.9611 215.191 30.1023 214.6 30.2383 214.028C30.4441 213.177 30.655 212.296 31.5377 211.903C32.6703 211.392 33.3166 212.51 33.7486 213.246C33.8914 213.492 34.1108 213.867 34.2248 213.926C34.5122 213.986 35.6482 213.021 36.451 211.76C36.8081 211.196 36.7401 210.478 36.6601 209.646C36.5863 209.082 36.5732 208.511 36.621 207.944C36.6891 207.374 36.5819 207.307 36.0666 206.989C35.5248 206.676 35.04 206.273 34.6329 205.798C33.3438 204.285 33.3863 203.352 33.4424 202.054C33.456 201.751 33.4696 201.439 33.4696 201.082C33.4696 199.906 34.0139 199.126 34.4492 198.502C34.7894 198.013 35.0598 197.627 35.0598 197.157C35.0598 196.058 34.1822 195.181 33.07 194.07L32.9322 193.932C32.337 193.336 31.7196 193.464 30.6822 193.743C30.0905 193.928 29.4768 194.033 28.8574 194.056C28.1005 194.056 27.5971 193.903 27.2706 193.575C26.8318 193.13 26.8352 192.495 26.842 191.823V191.587C26.842 190.787 27.0954 189.694 27.3641 188.537C27.3914 188.423 27.4186 188.304 27.4458 188.179C27.1501 188.041 26.8658 187.879 26.5954 187.696C25.9815 187.284 25.4747 187.099 24.8097 187.551C24.1447 188.004 23.9287 187.892 23.024 187.231C22.1192 186.571 21.1039 185.044 20.0376 185.072C18.9712 185.099 18.3862 185.524 18.2518 186.964C18.1175 188.404 20.012 190.406 19.7722 191.953C19.5324 193.5 20.1447 195.234 19.1855 194.592C18.2263 193.951 17.7722 192.565 16.6804 192.38C15.5885 192.194 14.5205 193.045 14.0953 193.285C13.6701 193.525 12.0681 193.847 11.4831 193.42C10.898 192.992 10.364 192.085 9.37759 193.607C8.39119 195.128 9.45752 198.834 7.53744 196.939C5.61735 195.045 4.24319 191.546 3.22277 191.291C2.20236 191.035 2.11732 192.142 2.11732 193.078C2.11732 194.014 0.841801 193.503 0.246558 193.929C-0.348686 194.354 0.246558 194.865 0.841801 196.311C1.43704 197.758 1.09691 198.864 1.01187 200.311C0.926836 201.757 2.5425 202.864 3.39284 204.225C4.24319 205.587 3.13774 205.757 3.64795 208.395C4.15816 211.033 6.36906 211.373 6.4541 214.352C6.53913 217.33 6.7092 220.649 6.7092 223.032C6.7092 225.414 7.02043 228.847 7.13437 229.868C8.83507 229.074 9.51535 227.938 10.4218 229.074C11.0984 229.96 11.7263 230.883 12.3028 231.838L12.2926 231.834ZM10.9643 225.913C10.1752 225.123 9.70583 224.451 9.48644 223.794C9.17351 222.863 9.3997 221.98 10.1395 221.241C10.2875 221.078 10.467 220.947 10.6673 220.855C10.8676 220.764 11.0844 220.714 11.3045 220.709C11.9848 220.709 12.5715 221.165 13.1429 221.605C13.6123 221.968 14.097 222.342 14.5035 222.342C14.6736 222.342 14.7773 222.312 14.8232 222.252C15.0579 221.944 14.7246 220.72 14.4287 219.646C14.3555 219.378 14.279 219.097 14.2025 218.806C14.1342 218.595 14.1095 218.373 14.13 218.153C14.1504 217.932 14.2156 217.718 14.3215 217.524C14.7161 216.859 15.5834 216.644 16.5018 216.416C17.4202 216.188 18.3896 215.948 18.7518 215.266C19.1141 214.583 19.1617 214.338 19.1685 214.245C19.0233 214.218 18.8755 214.208 18.728 214.214H18.4202H18.012C16.3487 214.214 13.4525 211.831 12.5868 210.968C11.3147 209.695 9.81807 207.183 10.9014 205.478C11.0035 205.318 11.3113 204.833 11.8249 204.833C12.5052 204.833 12.9201 205.64 13.4508 206.662C13.7331 207.251 14.0666 207.813 14.4474 208.342C14.927 208.953 15.495 209.214 16.3453 209.214C16.6785 209.207 17.0111 209.184 17.3419 209.144C17.6942 209.101 18.0484 209.077 18.4032 209.071C20.1447 209.071 20.4066 209.82 20.8029 210.953V210.973C21.1277 211.903 22.1175 212.895 23.2655 214.037L23.6056 214.377C24.6073 215.388 24.5291 217.342 23.3658 220.351C23.1957 220.777 23.0716 221.183 22.9457 221.577C22.5648 222.776 22.2348 223.813 21.1702 224.218C21.0392 224.273 20.8991 224.304 20.7569 224.308C20.6617 224.311 20.5672 224.291 20.4815 224.249C20.3959 224.207 20.3217 224.145 20.2654 224.068C20.0273 223.74 20.1753 223.29 20.4202 222.547C20.6413 221.879 20.9151 221.047 20.9151 220.252C20.9151 219.648 20.8386 219.413 20.7995 219.333C20.7093 219.366 20.4831 219.504 19.9831 219.995C19.5154 220.463 19.1328 220.904 18.7654 221.331C18.3981 221.759 18.0852 222.119 17.6991 222.506C17.4134 222.792 17.0103 223.598 16.5851 224.453C15.9559 225.717 15.2433 227.15 14.4116 227.983C14.0409 228.354 13.6906 228.534 13.3402 228.534C12.6395 228.534 12.2416 227.853 11.8096 227.135C11.5793 226.694 11.2954 226.284 10.9643 225.913Z" fill="#98A9BC"/>
<path d="M57.3812 54.0292C58.7417 54.9652 58.5717 56.1566 57.7213 57.433C56.871 58.7095 58.3166 59.135 59.507 60.4114C60.6975 61.6879 62.8234 62.709 62.3132 64.8365C62.1901 65.3566 62.0193 65.8642 61.803 66.3529C62.8454 66.3437 63.885 66.4632 64.8982 66.7086C66.9272 67.2345 67.6296 67.2311 68.4697 66.6882C69.4255 66.0738 70.6347 64.0451 70.6347 63.2843C70.6309 63.0806 70.6167 62.8773 70.5922 62.675C70.5173 61.933 70.4136 60.9169 71.5446 60.3876C72.1959 60.0847 72.2248 59.4498 72.1942 58.5155C72.1942 58.3759 72.1857 58.2432 72.1857 58.1155C72.1857 57.222 72.4255 57.0535 73.116 56.8016C73.2861 56.7387 73.5004 56.6621 73.7674 56.5446C74.7232 56.126 74.5803 54.8563 74.4885 54.5397C74.2402 53.6701 75.7538 52.3272 76.5463 52.0958C76.6517 52.0175 76.6585 51.4729 76.6602 51.2108C76.6602 50.6628 76.6756 50.0432 76.9851 49.6007C77.4001 49.0068 78.2147 48.988 78.9324 48.9693C79.2062 48.9693 79.6654 48.9523 79.7657 48.8757C80.3457 48.2954 81.594 46.6172 80.6161 43.6252C79.8627 41.314 79.7419 40.1159 80.1977 39.4861C80.5463 39.0062 81.1246 39.0062 81.3151 39.0062C81.7147 39.0062 82.0651 39.0215 82.3746 39.0351C83.2164 39.0726 83.6943 39.0913 84.1535 38.802C83.3185 37.7451 83.4222 35.0662 83.6433 31.9517C83.6654 31.6351 83.6858 31.3356 83.7011 31.0599C83.7947 29.5281 83.1569 28.7946 82.5396 28.0781C82.2338 27.7506 81.9699 27.3865 81.7538 26.9939C81.3423 26.1685 81.4511 24.6657 81.5838 22.9246L81.5991 22.7118C81.8817 22.6819 82.1668 22.6819 82.4494 22.7118C82.4494 22.8038 82.4375 22.8957 82.4307 22.9842C82.3185 24.5329 82.2113 25.9949 82.5191 26.611C82.705 26.9404 82.93 27.2462 83.1892 27.5215C83.8491 28.2874 84.6688 29.2405 84.5498 31.1109C84.5345 31.3883 84.5124 31.6896 84.4919 32.0078C84.3542 34.0008 84.1008 37.7127 84.9086 38.3595C85.3559 38.7186 85.9035 38.4616 86.7607 38.0191C87.2964 37.7383 87.8508 37.4506 88.4325 37.386C88.6995 37.3553 89.0362 37.3485 89.2828 37.5561C89.3765 37.6502 89.4489 37.7633 89.4949 37.8878C89.541 38.0123 89.5597 38.1453 89.5498 38.2778C89.5634 38.6182 89.5719 38.8292 90.2301 39.0198C91.5413 39.4027 92.6111 39.3602 93.5618 39.3211C93.8492 39.3091 94.1196 39.2972 94.39 39.2972C95.14 39.2972 95.4903 39.6972 95.771 40.0188C96.0516 40.3405 96.2386 40.5533 96.8254 40.5533C97.3713 40.5533 97.8662 40.2486 98.3458 39.9525C99.0074 39.544 99.7574 39.0828 100.587 39.5797C100.859 39.7346 101.14 39.8738 101.427 39.9967C102.523 40.4971 104.021 41.1881 103.66 42.7709C103.599 43.0415 103.53 43.3138 103.463 43.5793C103.278 44.3026 103.024 45.2931 103.208 45.528C103.239 45.5689 103.337 45.5757 103.393 45.5757C103.683 45.5757 104.058 45.4055 104.456 45.2199C105.399 44.7877 106.688 44.1988 107.793 45.671C108.297 46.3239 108.752 47.0134 109.154 47.7337C109.284 47.9907 109.442 48.2323 109.627 48.4536C109.967 48.8451 110.031 49.5122 110.103 50.2849C110.162 50.9248 110.23 51.6465 110.48 52.0549C110.61 52.266 110.754 52.5655 110.921 52.9059C111.506 54.1126 112.482 56.1396 113.812 56.1396C114.239 56.1396 114.696 56.1498 115.14 56.1583C116.689 56.194 118.446 56.2332 119.222 55.8179C119.756 55.5337 120.081 55.0231 120.426 54.4802C120.697 54.0056 121.042 53.5766 121.446 53.2088C122.057 52.6983 122.266 51.8609 122.553 50.6985C122.625 50.4143 122.7 50.1164 122.785 49.805L122.849 49.5633C123.212 48.2188 123.281 48.1303 124.72 47.1942L125.169 46.9015C126.963 45.7271 127.504 45.2165 128.688 44.0967L128.873 43.9265C129.935 42.9223 130.55 42.9206 131.331 42.9172C131.672 42.9223 132.013 42.9012 132.351 42.8543C132.85 42.7794 133.662 42.633 134.297 42.5139C134.462 42.3094 134.61 42.092 134.741 41.8637C134.354 41.5859 134.022 41.2399 133.759 40.8426C133.392 40.2393 133.061 39.6141 132.77 38.9704C132.169 37.7161 131.798 37.0064 131.145 37.0064C130.099 37.0064 129.487 36.0312 128.895 35.09C128.501 34.462 128.093 33.8153 127.567 33.4204C126.887 32.9099 126.431 32.8945 126.285 33.0052C126.173 33.0886 126.133 33.3694 126.297 33.8051C126.608 34.6339 126.436 35.4594 125.849 35.958C125.263 36.4567 124.489 36.4856 123.764 36.0737C123.558 35.9837 123.381 35.8367 123.254 35.65L122.596 35.4032C121.553 35.0083 120.534 34.5502 119.547 34.0314C119.389 34.472 119.152 34.8799 118.848 35.2347C117.817 36.2661 115.276 35.9155 113.698 35.5087C112.12 35.102 111.706 33.9293 109.921 32.692C108.135 31.4547 106.968 34.4093 105.732 33.5174C104.496 32.6256 105.115 31.1109 105.8 30.0812C106.485 29.0516 108.135 25.4077 108.754 24.0326C109.373 22.6574 110.676 20.7342 110.951 19.3607C111.027 18.9111 111.057 18.4549 111.04 17.9992C110.405 16.9917 109.785 15.9824 109.575 15.3561C109.366 14.7298 109.152 13.4142 108.941 11.8586C106.664 11.7174 104.444 11.5591 103.499 11.5591C101.798 11.5591 96.6961 11.2187 96.271 11.6442C95.8458 12.0697 97.3764 13.261 98.4819 13.261C99.5873 13.261 101.288 13.6014 101.798 14.2822C102.308 14.963 101.288 14.8779 100.098 15.4735C98.907 16.0692 98.2268 16.4947 98.2268 17.686C98.2268 18.8774 98.3968 21.0899 99.2472 21.7707C100.098 22.4515 100.948 22.962 100.863 24.5789C100.778 26.1957 100.948 28.8337 100.353 28.3231C99.7574 27.8126 98.737 25.4299 98.2268 24.4087C97.7166 23.3875 98.1417 21.8558 96.7812 21.8558C95.4206 21.8558 93.2947 22.2813 92.7845 21.4303C92.2743 20.5793 91.509 20.239 90.9988 20.239C90.4886 20.239 90.5736 18.7923 89.7233 18.4519C88.8729 18.1115 87.9376 18.7923 87.9376 19.8986C87.9376 21.0048 87.2573 23.6428 86.2369 23.3875C85.2164 23.1322 82.4953 22.5366 81.56 22.7068C80.6246 22.877 78.1586 22.1962 76.9681 23.9832C75.7776 25.7702 74.5021 27.2169 73.0565 27.9828C71.6109 28.7486 72.4612 29.2592 71.1857 30.6208C69.9102 31.9823 69.5701 31.8972 67.6993 32.1525C65.8285 32.4078 65.7435 33.2588 65.3183 34.9607C64.8931 36.6626 63.9578 37.854 62.5122 38.8751C61.0666 39.8963 61.0666 40.0665 60.4713 41.5982C59.8761 43.13 59.2808 45.2574 58.0053 46.4488C56.7298 47.6401 54.774 47.555 55.4543 49.5122C56.1346 51.4695 56.0206 53.0931 57.3812 54.0292Z" fill="#98A9BC"/>
<path d="M175.714 104.519C175.816 104.418 175.927 104.311 176.044 104.192C176.407 103.842 176.705 103.43 176.922 102.975C174.68 101.677 173.328 101.43 172.978 101.784C172.189 102.573 170.571 102.546 168.336 102.509C167.804 102.499 167.255 102.49 166.665 102.49C164.195 102.49 162.891 100.946 161.51 99.3125C161.083 98.802 160.644 98.2914 160.16 97.8046C159.035 96.6797 157.608 95.5172 156.338 94.4927C155.318 93.6604 154.428 92.9422 153.857 92.3721C153.539 92.0521 153.205 91.6674 152.853 91.2573C151.807 90.0438 150.506 88.5342 148.772 87.9096C147.182 87.3377 145.68 87.5692 144.35 87.7632C143.806 87.8592 143.256 87.9161 142.704 87.9334C141.108 87.9334 139.035 88.2891 138.255 89.0703C138.011 89.312 137.937 89.6439 137.85 90.0285C137.668 90.8301 137.442 91.8291 135.612 92.195C133.697 92.578 133.401 92.8911 132.763 93.577C132.637 93.7115 132.499 93.8579 132.34 94.0195C132.241 94.1165 132.141 94.2204 132.035 94.3259C131.027 95.3555 129.642 96.7631 128.062 96.7631C127.078 96.7631 126.642 97.2464 125.773 98.2114C125.589 98.4139 125.387 98.6369 125.163 98.8751C125.864 99.2196 126.546 99.6043 127.203 100.027C128.198 100.647 128.855 101.049 129.998 101.049C130.795 101.049 131.647 100.504 132.401 100.027C133.346 99.4249 134.324 98.802 135.049 99.527C135.571 100.048 135.659 100.889 135.744 101.714C135.84 102.613 135.928 103.208 136.299 103.295C136.532 103.348 136.78 103.389 137.042 103.431C138.151 103.61 139.532 103.831 139.913 105.353C140.163 106.353 139.442 107.041 138.914 107.541C138.673 107.773 138.372 108.052 138.369 108.21C138.386 108.287 138.429 108.356 138.491 108.406C138.768 108.683 139.333 108.854 139.931 109.034C141.215 109.424 142.948 109.95 143.437 112.055H145.03C145.745 112.083 146.456 112.172 147.156 112.32C148.545 112.572 149.983 112.831 150.634 112.179C150.96 111.851 151.183 111.386 151.399 110.937C151.71 110.285 152.032 109.613 152.699 109.439C153.19 109.311 153.746 109.483 154.447 109.982C155.569 110.778 156.193 111.669 156.693 112.382C157.193 113.095 157.573 113.634 158.234 113.786C158.866 113.938 159.485 114.137 160.086 114.383C160.508 114.571 160.951 114.706 161.406 114.783C161.663 114.494 162.064 114.245 162.523 113.959C163.124 113.587 163.804 113.163 164.364 112.545C165.937 110.804 166.52 110.962 167.566 111.781L167.825 111.98C168.575 112.542 168.981 112.344 169.956 111.64C170.672 111.117 171.399 111.129 172.321 111.165C172.879 111.189 173.437 111.179 173.993 111.134C174.471 111.09 174.78 110.99 174.889 110.843C175.059 110.624 174.945 110.077 174.808 109.385C174.734 109.015 174.653 108.597 174.588 108.125C174.313 105.981 174.575 105.635 175.714 104.519Z" fill="#98A9BC"/>
<path d="M110.537 93.6008C110.246 93.8918 109.948 94.1897 109.652 94.4892C109.742 94.9649 109.793 95.4469 109.805 95.9308C109.885 97.2923 109.975 98.824 111.062 99.2325C112.839 99.8877 113.795 99.835 114.589 99.0402C115.675 97.9544 118.459 96.9553 120.042 97.3774C120.453 97.4863 120.845 97.5578 121.258 97.631C122.321 97.7954 123.36 98.0868 124.353 98.499C124.658 98.1875 124.92 97.8965 125.156 97.6361C126.095 96.5945 126.714 95.9069 128.076 95.9069C129.301 95.9069 130.488 94.6968 131.443 93.725L131.751 93.4119C131.904 93.2587 132.035 93.1192 132.156 92.9898C132.913 92.1814 133.369 91.7729 135.459 91.356C136.748 91.0973 136.869 90.568 137.034 89.8344C137.095 89.5036 137.203 89.1832 137.355 88.8831C136.848 88.6084 136.304 88.4078 135.739 88.2874C134.821 88.0559 133.954 87.8364 133.671 86.4153C133.51 85.6052 133.515 84.4683 133.522 83.2633C133.53 81.7588 133.54 79.8833 133.108 79.4527C132.722 79.0646 132.466 78.4434 132.216 77.8427C132.045 77.4376 131.738 76.6853 131.554 76.6513C131.54 76.6513 131.448 76.6717 131.287 76.8351C131.125 76.9985 130.957 77.1755 130.801 77.3372C130.1 78.0758 129.44 78.7736 128.612 78.7855C128.122 78.7855 127.664 78.566 127.195 78.1048C126.778 77.6878 126.396 77.2351 126.027 76.7977C125.255 75.8871 124.528 75.026 123.908 75.026C123.738 75.026 123.547 75.026 123.323 75.0141C122.069 74.98 119.736 74.9136 118.778 75.865C118.212 76.4335 118.159 76.8692 118.098 77.3729C118.037 77.8767 117.976 78.4128 117.418 78.971C116.86 79.5293 116.186 79.4816 115.709 79.4238C115.168 79.3642 114.943 79.3387 114.688 79.9071C114.387 80.5879 114.574 81.352 114.739 82.0192C114.909 82.7119 115.079 83.4284 114.598 83.9185C114.329 84.1891 113.879 84.3645 113.407 84.5517C112.991 84.7219 112.294 84.9873 112.244 85.2188C112.229 85.3005 112.304 85.4792 112.567 85.743C114.135 87.3122 114.661 88.0644 113.942 89.7459C113.623 90.5016 112.191 91.938 110.537 93.6008Z" fill="#0070BA"/>
<path d="M330.152 236.683C330.712 236.123 330.271 234.901 329.526 234.156C328.549 233.177 327.838 231.141 327.838 229.315C327.838 227.22 328.23 225.05 328.889 223.515C329.073 223.071 329.229 222.617 329.356 222.153C329.623 221.248 329.853 220.465 330.856 219.461C332.361 217.955 336.914 217.616 338.389 217.616C338.455 217.616 338.506 217.616 338.547 217.616C338.356 217.296 337.744 216.697 337.319 216.28C337.171 216.135 337.021 215.989 336.877 215.844C336.319 215.286 336.081 214.747 336.152 214.197C336.249 213.455 336.889 212.788 338.292 211.967C339.542 211.239 339.435 209.307 339.312 207.263C339.282 206.688 339.248 206.094 339.248 205.527C339.248 202.947 339.248 202.898 338.283 201.114C337.368 199.426 337.379 198.815 337.401 197.336C337.401 197.075 337.411 196.784 337.411 196.451C337.411 195.608 337.411 195.144 337.324 194.88C337.256 194.665 337.12 194.529 336.7 194.134C336.53 193.978 336.329 193.786 336.088 193.544C334.78 192.233 334.897 191.726 335.601 190.608C335.725 190.407 335.867 190.179 336.016 189.907C336.722 188.624 337.037 187.984 336.867 187.172C336.373 187.623 335.867 188.059 335.36 188.447C333.34 189.967 330.929 190.879 328.409 191.078C326.644 191.204 325.657 190.819 324.514 190.373C324.04 190.188 323.548 189.997 322.946 189.817C321.991 189.532 321.64 189.829 321.157 190.239C320.746 190.588 320.236 191.022 319.339 191.022C317.434 191.022 316.334 190.283 314.97 188.918C314.244 188.191 313.484 188.11 312.523 188.006C311.785 187.957 311.059 187.801 310.366 187.543C310.184 187.48 310.017 187.377 309.88 187.242C309.743 187.106 309.638 186.94 309.574 186.758C309.32 185.98 309.914 185.031 310.482 184.112C310.832 183.547 311.23 182.905 311.23 182.568C311.225 182.423 311.175 182.284 311.087 182.169C310.999 182.054 310.877 181.969 310.739 181.926C310.229 181.719 309.567 181.812 309.244 182.134C308.873 182.507 308.276 183.169 307.642 183.87C306.95 184.636 306.235 185.429 305.742 185.923C304.933 186.733 304.907 187.114 304.907 188.957V189.275C304.907 190.914 304.907 191.738 303.934 192.715C303.266 193.384 303.269 193.786 303.955 195.098C304.15 195.472 304.375 195.474 305.103 195.278C305.625 195.137 306.276 194.963 306.759 195.448C307.242 195.933 307.542 196.609 307.899 197.445C308.103 197.92 308.332 198.466 308.644 199.06C309.135 200.01 309.113 201.272 308.586 202.365C308.145 203.276 307.441 203.887 306.652 204.04C305.096 204.343 303.591 205.097 302.635 206.058C301.679 207.02 301.177 208.332 301.177 209.94C301.177 211.848 300.177 212.471 298.21 213.004C297.785 213.121 297.713 213.239 297.7 213.263C297.643 213.388 297.841 213.773 297.985 214.062C298.223 214.529 298.519 215.111 298.519 215.764C298.519 217.058 297.732 217.415 296.899 217.793C296.513 217.958 296.141 218.154 295.788 218.38C295.602 218.495 295.448 218.655 295.34 218.844C295.232 219.034 295.173 219.248 295.169 219.466C295.558 219.397 295.956 219.388 296.348 219.439C297.708 219.665 298.048 221.481 298.162 222.729C298.276 223.976 298.162 226.02 298.842 227.382C299.523 228.743 297.822 229.084 297.142 230.217C296.461 231.351 295.213 232.94 296.007 233.849C296.802 234.758 297.594 234.983 299.635 235.551C301.676 236.12 302.244 234.416 303.49 233.962C304.737 233.507 304.965 235.097 305.305 236.685C305.645 238.273 307.572 238.501 308.706 238.727C309.841 238.953 310.407 241.45 311.88 240.997C313.353 240.545 314.829 240.657 314.375 241.564C313.921 242.471 309.953 242.926 309.839 244.287C309.725 245.649 308.706 246.896 310.633 247.805C312.56 248.714 311.2 246.67 313.014 246.444C314.829 246.217 314.601 247.691 316.982 247.691C319.363 247.691 320.043 245.989 321.518 245.194C322.992 244.4 323.899 246.329 326.054 244.968C327.826 243.846 328.293 242.727 329.225 242.303C329.28 240.119 329.535 237.301 330.152 236.683Z" fill="#98A9BC"/>
<path d="M409.619 118.618C409.239 118.419 408.992 118.49 408.65 118.589C407.957 118.788 407.316 118.858 406.496 117.673C405.974 116.919 405.833 116.936 405.528 116.97C405.16 117.011 404.604 117.074 403.655 116.514C401.859 115.45 402.54 114.278 403.197 113.146C403.384 112.824 403.579 112.49 403.759 112.125C404.534 110.516 404.367 109.02 403.728 106.472C403.441 105.316 403.064 105.23 402.242 105.041C401.355 104.881 400.522 104.5 399.822 103.933C397.671 102.198 398.426 101.097 399.469 99.5756C399.609 99.3696 399.761 99.1501 399.916 98.9135C400.641 97.8106 400.173 97.3051 399.405 96.4694C398.989 96.0604 398.638 95.591 398.363 95.0771C397.852 93.9997 398.281 93.2049 398.664 92.5071C398.938 92.0067 399.199 91.5318 399.199 90.9123C399.199 90.0272 398.189 89.2988 397.019 88.4546C396.304 87.9664 395.629 87.4217 395.001 86.8257C393.468 85.2939 394.163 84.2727 394.831 83.2838C395.068 82.9497 395.278 82.5968 395.457 82.2286C396.106 80.8142 395.933 80.3291 395.003 79.3998C393.892 78.2901 393.431 77.4834 393.811 75.8954C394.061 74.8452 394.899 74.7618 395.573 74.6938C396.128 74.6376 396.653 74.5848 397.097 74.1406C398.056 73.1824 398.289 72.1135 397.927 70.1987C397.646 68.6856 398.054 68.2788 398.712 67.8295C398.894 67.7111 399.066 67.5755 399.222 67.4244C399.977 66.6704 400.203 66.4424 399.052 65.2918C398.03 64.2706 398.323 63.3583 398.562 62.6264C398.722 62.1346 398.86 61.7108 398.683 61.2223C398.47 60.6385 398.332 60.5823 398.082 60.4785C397.761 60.3457 397.324 60.1653 396.823 59.2956C396.629 58.9574 396.464 58.6033 396.331 58.2369C396.307 58.1774 396.282 58.1093 396.258 58.0531C396.064 58.1467 395.711 58.3731 395.463 58.5331L395.33 58.6182C393.698 59.6615 393.569 59.6837 391.869 59.2088L391.808 59.1918C391.165 59.0244 390.604 58.631 390.228 58.0838C389.918 57.6889 389.731 57.4523 388.952 57.4523C387.59 57.4523 387.158 56.2711 386.783 55.2312C386.529 54.5248 386.272 53.7964 385.748 53.2773C384.472 52.0024 384.51 51.3335 384.707 50.057C384.741 49.829 384.782 49.5703 384.814 49.2826C384.985 47.8921 386.538 46.7194 387.915 45.6845C388.453 45.3041 388.965 44.8885 389.448 44.4404C390.509 43.3817 391.236 43.3034 392.157 43.203C392.526 43.1684 392.894 43.115 393.257 43.043C394.001 42.8864 393.686 40.8304 393.457 39.3241C393.323 38.5908 393.241 37.8493 393.21 37.1047C393.21 35.7294 392.242 34.6197 391.016 33.2139C390.657 32.802 390.286 32.3765 389.903 31.9067C388.479 30.1553 388.419 29.8132 388.743 28.8431C388.82 28.6196 388.886 28.3924 388.94 28.1623C389.158 27.2006 390.095 26.9709 391.001 26.736C391.907 26.5011 392.804 26.2832 393.259 25.4237C393.955 24.1115 393.666 23.931 392.271 23.0579C392.026 22.9047 391.748 22.7311 391.454 22.5354C389.867 21.4733 389.615 21.0138 388.94 19.7815C388.751 19.4411 388.537 19.0446 388.246 18.5493C387.53 17.3323 387.668 16.5205 387.975 15.8056L387.992 15.8175C387.575 15.518 387.503 15.1708 387.541 14.364C387.609 12.9496 387.406 11.1302 385.18 12.4101C382.955 13.69 380.188 15.0397 381.672 16.1852C383.157 17.3306 384.37 16.866 383.966 18.0063C383.563 19.1467 383.696 19.2862 384.709 19.6232C385.722 19.9602 387.541 21.2419 385.584 21.9159C383.627 22.5899 382.955 22.0503 381.667 20.7704C380.38 19.4905 378.294 17.9382 377.351 19.9602C376.407 21.9822 375.799 22.9269 377.351 24.5455C378.902 26.1641 379.105 26.9062 380.858 28.3206C382.612 29.7349 382.41 28.8601 383.753 30.2098C385.097 31.5595 387.329 34.9295 385.507 35.1303C383.685 35.3312 382.539 34.2538 381.999 32.6369C381.46 31.02 380.515 31.1527 378.694 30.3443C376.874 29.5358 374.437 28.3886 373.703 27.5121C372.969 26.6356 373.095 27.0406 373.635 25.085C374.175 23.1294 373.095 22.6579 373.703 20.9049C374.311 19.1518 375.329 18.8931 376.01 17.4055C376.692 15.9179 376.753 12.4833 376.753 10.7983C376.753 9.11327 376.821 8.43927 376.01 7.90484C375.2 7.37041 374.122 7.97122 374.324 8.98222C374.527 9.99322 374.325 13.433 373.853 14.6465C373.381 15.8601 373.313 17.0055 371.288 17.8157C369.263 18.6259 367.712 18.0846 366.837 19.0956C365.962 20.1066 366.568 21.2538 365.691 22.0622C364.814 22.8707 362.455 22.6699 363.194 24.2885C363.933 25.9071 365.623 26.9181 365.749 29.2771C365.875 31.6361 366.895 33.0522 366.289 35.0759C365.789 36.8441 364.94 38.4946 363.792 39.93C362.646 41.4125 361.837 43.5043 361.095 44.5153C360.352 45.5263 360.754 47.0768 360.754 48.6954C360.754 50.314 359.944 51.1225 360.073 52.673C360.202 54.2236 360.613 54.6287 361.827 54.6287C363.041 54.6287 362.636 55.8422 364.187 55.7741C365.739 55.706 366.413 54.2236 367.492 54.5606C368.572 54.8976 369.854 55.5716 372.215 56.9877C374.575 58.4037 376.666 59.8198 376.666 61.4384C376.666 63.0571 376.869 63.8655 376.869 65.6186C376.869 67.3717 377.477 68.786 376.128 69.6626C374.779 70.5391 373.361 72.0233 373.563 73.1687C373.766 74.3142 373.969 76.2715 375.588 76.6749C377.207 77.0783 379.512 77.2723 379.586 77.9531C379.661 78.6339 378.979 79.0322 376.281 78.6952C373.584 78.3582 372.099 78.0144 371.694 76.2681C371.288 74.5219 371.087 71.8173 371.964 70.9408C372.841 70.0643 372.775 68.6465 373.238 67.2304C373.701 65.8143 373.643 64.9395 373.306 63.8604C372.969 62.7813 371.821 61.5678 371.821 60.4887C371.821 59.4096 371.889 58.3986 370.404 58.4667C368.92 58.5348 364.199 59.0063 363.053 59.6803C361.907 60.3543 360.826 61.2972 360.488 63.2545C360.151 65.2118 361.028 66.5581 360.623 68.5818C360.218 70.6055 360.422 73.099 358.803 74.11C357.183 75.121 356.509 74.6495 355.295 76.9421C354.08 79.2347 354.552 80.9197 352.192 81.7963C349.832 82.6728 348.752 83.0098 348.481 83.7519C348.211 84.494 347.267 83.9544 345.985 84.2914C344.703 84.6284 345.11 85.842 344.434 86.9211C343.758 88.0001 343.356 89.1456 341.736 88.201C340.117 87.2564 340.117 85.7739 338.295 85.7739C336.473 85.7739 334.923 85.9084 334.046 84.8974C333.169 83.8864 331.684 82.2082 330.884 81.592C330.083 80.9759 328.793 79.6364 329.198 78.4229C329.603 77.2093 330.141 77.2093 331.761 78.2884C333.38 79.3675 335.066 79.7726 336.415 80.176C337.763 80.5793 335.335 82.0635 337.9 82.266C340.464 82.4686 341.816 81.7265 341.271 80.6491C340.726 79.5717 341.745 79.6364 342.959 78.9624C344.173 78.2884 345.59 76.7379 346.67 75.2537C347.749 73.7696 349.164 71.9501 350.447 71.6795C351.729 71.4089 352.672 70.7349 352.875 69.3205C353.077 67.9061 352.066 66.3522 353.415 65.3412C354.763 64.3302 357.125 60.9585 356.383 59.8811C355.64 58.8037 352.807 55.8354 353.549 53.9478C354.292 52.0603 355.843 49.9685 356.112 47.8121C356.381 45.6556 356.793 41.2712 357.192 39.9232C357.59 38.5752 357.873 37.5642 359.216 35.4741C360.56 33.3841 361.105 31.2191 360.97 29.2703C360.836 27.3215 357.789 24.4859 358.735 23.0017C359.68 21.5176 361.837 19.0871 363.39 17.0004C364.943 14.9138 365.819 10.9327 365.819 9.51155C365.819 8.09036 367.234 7.48955 366.222 6.3492C365.211 5.20884 364.739 4.86504 362.85 4.05658C360.962 3.24812 358.934 2.36988 357.655 1.89842C356.376 1.42696 355.497 -0.394202 354.554 0.0772568C353.61 0.548716 351.923 3.44896 350.777 5.67349C349.631 7.89803 348.483 12.2144 346.52 13.9674C344.556 15.7205 345.508 15.5861 341.934 17.0685C338.359 18.551 337.549 18.4165 336.469 20.3721C335.39 22.3277 334.647 24.3497 335.997 24.4859C337.348 24.6221 337.212 25.5633 336.536 26.3734C335.86 27.1836 335.659 28.935 334.85 31.1595C334.041 33.3841 335.12 34.6657 333.433 34.7338C331.745 34.8018 331.613 34.053 330.667 37.0264C329.722 39.9998 332.152 39.1828 333.096 40.1275C334.039 41.0721 334.782 41.5435 334.647 43.4992C334.513 45.4548 333.433 46.1952 334.715 48.4878C335.997 50.7804 337.414 50.3072 336.874 51.6569C336.335 53.0066 334.647 54.421 333.567 55.8371C332.488 57.2532 331.41 57.8591 330.802 56.3766C330.194 54.8942 330.061 53.6789 328.982 51.5225C327.902 49.366 328.847 48.4878 326.822 46.9372C324.798 45.3867 323.651 43.363 322.235 41.8125C321.978 41.5272 321.76 41.2096 321.586 40.8678C320.651 41.6167 319.692 42.4575 319.219 42.8779C318.992 43.0667 318.748 43.2342 318.49 43.3783C318.274 43.5077 317.874 43.7477 317.863 43.86C317.863 43.8957 317.916 44.0455 318.204 44.3008C319.52 45.4446 320.656 46.4317 320.552 47.6691C320.554 48.0149 320.624 48.3569 320.76 48.675C320.963 49.2741 321.194 49.9549 320.74 50.6766C320.353 51.3363 319.745 51.8371 319.023 52.0892C319.096 52.4288 319.083 52.781 318.985 53.1142C318.887 53.4473 318.707 53.7508 318.463 53.9972C317.903 54.6133 317.645 55.2975 317.405 56.814C317.327 57.311 317.506 57.42 318.078 57.6855C318.589 57.9221 319.284 58.2437 319.486 59.156C319.755 60.3679 319.217 60.8904 318.742 61.3516C318.492 61.572 318.279 61.8305 318.11 62.1175C317.965 62.3761 317.91 62.6754 317.954 62.9685C317.989 63.5098 317.954 63.9727 317.165 64.5923C316.552 65.0548 315.885 65.4406 315.178 65.7411C314.5 66.0502 313.842 66.3991 313.206 66.7862C312.691 67.1199 312.244 67.5485 311.89 68.0491C311.307 68.7895 310.645 69.6268 308.707 70.3264C307.28 70.837 305.494 71.1774 303.769 71.4889C301.761 71.8599 299.865 72.2088 298.573 72.8113C297.001 73.5449 296.77 74.3431 296.477 75.3643C296.351 75.8622 296.167 76.3437 295.93 76.7991C295.079 78.3191 293.488 78.4297 291.797 78.5471C291.567 78.5624 291.331 78.5795 291.09 78.5999C291.058 78.5999 291.027 78.5999 290.995 78.6101C291.012 78.7763 291.021 78.9434 291.021 79.1105C291.021 79.3437 291.005 79.5717 290.985 79.7913L291.865 86.453C291.872 86.5033 291.863 86.5544 291.84 86.5994L288.311 93.6747C288.289 93.7206 288.281 93.7721 288.288 93.8228C288.295 93.8734 288.316 93.9208 288.351 93.9589L292.766 98.8556C292.794 98.8859 292.829 98.9091 292.868 98.9234C292.907 98.9376 292.948 98.9423 292.989 98.9373L302.164 97.7544L302.241 97.7987L308.356 101.429L308.366 101.458L310.251 107.058C310.27 107.111 310.307 107.157 310.355 107.188C310.403 107.219 310.46 107.233 310.517 107.228L320.464 106.314L320.537 106.363L327.638 111.018L327.662 111.117L329.876 120.541L329.891 120.585C331.056 123.21 332.445 126.272 333.026 127.45C333.043 127.483 333.067 127.513 333.096 127.536C333.126 127.56 333.161 127.576 333.197 127.585C333.234 127.593 333.272 127.593 333.309 127.585C333.346 127.577 333.381 127.561 333.411 127.538C334.351 126.811 336.416 125.24 337.344 124.534L337.489 124.423L337.54 124.457L349.05 132.116C349.1 132.15 349.16 132.165 349.22 132.159L354.06 131.638L354.147 131.723L363.821 141.355C363.864 141.398 363.921 141.424 363.981 141.428L372.863 142.109C372.919 142.113 372.974 142.099 373.02 142.068L379.554 137.903L379.597 137.922L393.3 143.86L400.793 149.355C401.113 147.865 402.034 147.031 403.071 146.097C403.384 145.813 403.71 145.52 404.04 145.19L404.636 144.599C406.043 143.212 407.969 141.312 407.969 140.293C407.969 139.612 407.984 139.052 408.001 138.504C408.018 137.956 408.035 137.359 408.035 136.647C408.035 136.007 407.652 135.481 407.209 134.872C406.809 134.322 406.395 133.755 406.223 133.034C405.905 131.696 407.202 130.578 408.347 129.592C408.675 129.31 408.983 129.044 409.241 128.787C410.281 127.747 410.669 124.735 410.669 123.08C410.674 121.537 410.674 119.173 409.619 118.618Z" fill="#98A9BC"/>
</svg>
